<mxfile host="Electron" modified="2024-02-11T07:54:43.843Z" agent="Mozilla/5.0 (X11; Linux x86_64) AppleWebKit/537.36 (KHTML, like Gecko) draw.io/23.0.2 Chrome/120.0.6099.109 Electron/28.1.0 Safari/537.36" etag="J2nkGdG0TcUvkiFoyYoB" version="23.0.2" type="device" pages="2">
  <diagram name="Page-1" id="wr-L5y7nn2R9QFwqmgwM">
    <mxGraphModel dx="1434" dy="1641" grid="0" gridSize="10" guides="1" tooltips="1" connect="1" arrows="1" fold="1" page="0" pageScale="1" pageWidth="1169" pageHeight="827" math="0" shadow="0">
      <root>
        <mxCell id="0" />
        <mxCell id="1" parent="0" />
        <mxCell id="iFwu6mjYf4d3JGYgfpNO-1" value="user" style="shape=table;startSize=30;container=1;collapsible=0;childLayout=tableLayout;fixedRows=1;rowLines=0;fontStyle=0;strokeColor=default;fontSize=16;" parent="1" vertex="1">
          <mxGeometry x="1" y="1" width="268.75" height="120" as="geometry" />
        </mxCell>
        <mxCell id="iFwu6mjYf4d3JGYgfpNO-2" value="" style="shape=tableRow;horizontal=0;startSize=0;swimlaneHead=0;swimlaneBody=0;top=0;left=0;bottom=0;right=0;collapsible=0;dropTarget=0;fillColor=none;points=[[0,0.5],[1,0.5]];portConstraint=eastwest;strokeColor=inherit;fontSize=16;" parent="iFwu6mjYf4d3JGYgfpNO-1" vertex="1">
          <mxGeometry y="30" width="268.75" height="30" as="geometry" />
        </mxCell>
        <mxCell id="iFwu6mjYf4d3JGYgfpNO-3" value="str" style="shape=partialRectangle;html=1;whiteSpace=wrap;connectable=0;fillColor=none;top=0;left=0;bottom=0;right=0;overflow=hidden;pointerEvents=1;strokeColor=inherit;fontSize=16;" parent="iFwu6mjYf4d3JGYgfpNO-2" vertex="1">
          <mxGeometry width="92" height="30" as="geometry">
            <mxRectangle width="92" height="30" as="alternateBounds" />
          </mxGeometry>
        </mxCell>
        <mxCell id="iFwu6mjYf4d3JGYgfpNO-4" value="user name" style="shape=partialRectangle;html=1;whiteSpace=wrap;connectable=0;fillColor=none;top=0;left=0;bottom=0;right=0;align=left;spacingLeft=6;overflow=hidden;strokeColor=inherit;fontSize=16;" parent="iFwu6mjYf4d3JGYgfpNO-2" vertex="1">
          <mxGeometry x="92" width="177" height="30" as="geometry">
            <mxRectangle width="177" height="30" as="alternateBounds" />
          </mxGeometry>
        </mxCell>
        <mxCell id="iFwu6mjYf4d3JGYgfpNO-5" value="" style="shape=tableRow;horizontal=0;startSize=0;swimlaneHead=0;swimlaneBody=0;top=0;left=0;bottom=0;right=0;collapsible=0;dropTarget=0;fillColor=none;points=[[0,0.5],[1,0.5]];portConstraint=eastwest;strokeColor=inherit;fontSize=16;" parent="iFwu6mjYf4d3JGYgfpNO-1" vertex="1">
          <mxGeometry y="60" width="268.75" height="30" as="geometry" />
        </mxCell>
        <mxCell id="iFwu6mjYf4d3JGYgfpNO-6" value="pass" style="shape=partialRectangle;html=1;whiteSpace=wrap;connectable=0;fillColor=none;top=0;left=0;bottom=0;right=0;overflow=hidden;strokeColor=inherit;fontSize=16;" parent="iFwu6mjYf4d3JGYgfpNO-5" vertex="1">
          <mxGeometry width="92" height="30" as="geometry">
            <mxRectangle width="92" height="30" as="alternateBounds" />
          </mxGeometry>
        </mxCell>
        <mxCell id="iFwu6mjYf4d3JGYgfpNO-7" value="password" style="shape=partialRectangle;html=1;whiteSpace=wrap;connectable=0;fillColor=none;top=0;left=0;bottom=0;right=0;align=left;spacingLeft=6;overflow=hidden;strokeColor=inherit;fontSize=16;" parent="iFwu6mjYf4d3JGYgfpNO-5" vertex="1">
          <mxGeometry x="92" width="177" height="30" as="geometry">
            <mxRectangle width="177" height="30" as="alternateBounds" />
          </mxGeometry>
        </mxCell>
        <mxCell id="iFwu6mjYf4d3JGYgfpNO-8" value="" style="shape=tableRow;horizontal=0;startSize=0;swimlaneHead=0;swimlaneBody=0;top=0;left=0;bottom=0;right=0;collapsible=0;dropTarget=0;fillColor=none;points=[[0,0.5],[1,0.5]];portConstraint=eastwest;strokeColor=inherit;fontSize=16;" parent="iFwu6mjYf4d3JGYgfpNO-1" vertex="1">
          <mxGeometry y="90" width="268.75" height="30" as="geometry" />
        </mxCell>
        <mxCell id="iFwu6mjYf4d3JGYgfpNO-9" value="email field" style="shape=partialRectangle;html=1;whiteSpace=wrap;connectable=0;fillColor=none;top=0;left=0;bottom=0;right=0;overflow=hidden;strokeColor=inherit;fontSize=16;" parent="iFwu6mjYf4d3JGYgfpNO-8" vertex="1">
          <mxGeometry width="92" height="30" as="geometry">
            <mxRectangle width="92" height="30" as="alternateBounds" />
          </mxGeometry>
        </mxCell>
        <mxCell id="iFwu6mjYf4d3JGYgfpNO-10" value="email" style="shape=partialRectangle;html=1;whiteSpace=wrap;connectable=0;fillColor=none;top=0;left=0;bottom=0;right=0;align=left;spacingLeft=6;overflow=hidden;strokeColor=inherit;fontSize=16;" parent="iFwu6mjYf4d3JGYgfpNO-8" vertex="1">
          <mxGeometry x="92" width="177" height="30" as="geometry">
            <mxRectangle width="177" height="30" as="alternateBounds" />
          </mxGeometry>
        </mxCell>
        <mxCell id="iFwu6mjYf4d3JGYgfpNO-20" value="transaction" style="shape=table;startSize=30;container=1;collapsible=0;childLayout=tableLayout;fixedRows=1;rowLines=0;fontStyle=0;strokeColor=#6F0000;fontSize=16;fillColor=#a20025;fontColor=#ffffff;" parent="1" vertex="1">
          <mxGeometry x="817" y="24" width="417" height="240" as="geometry" />
        </mxCell>
        <mxCell id="iFwu6mjYf4d3JGYgfpNO-21" value="" style="shape=tableRow;horizontal=0;startSize=0;swimlaneHead=0;swimlaneBody=0;top=0;left=0;bottom=0;right=0;collapsible=0;dropTarget=0;fillColor=none;points=[[0,0.5],[1,0.5]];portConstraint=eastwest;strokeColor=inherit;fontSize=16;" parent="iFwu6mjYf4d3JGYgfpNO-20" vertex="1">
          <mxGeometry y="30" width="417" height="30" as="geometry" />
        </mxCell>
        <mxCell id="iFwu6mjYf4d3JGYgfpNO-22" value="int" style="shape=partialRectangle;html=1;whiteSpace=wrap;connectable=0;fillColor=none;top=0;left=0;bottom=0;right=0;overflow=hidden;pointerEvents=1;strokeColor=inherit;fontSize=16;" parent="iFwu6mjYf4d3JGYgfpNO-21" vertex="1">
          <mxGeometry width="111" height="30" as="geometry">
            <mxRectangle width="111" height="30" as="alternateBounds" />
          </mxGeometry>
        </mxCell>
        <mxCell id="iFwu6mjYf4d3JGYgfpNO-23" value="value" style="shape=partialRectangle;html=1;whiteSpace=wrap;connectable=0;fillColor=none;top=0;left=0;bottom=0;right=0;align=left;spacingLeft=6;overflow=hidden;strokeColor=inherit;fontSize=16;" parent="iFwu6mjYf4d3JGYgfpNO-21" vertex="1">
          <mxGeometry x="111" width="306" height="30" as="geometry">
            <mxRectangle width="306" height="30" as="alternateBounds" />
          </mxGeometry>
        </mxCell>
        <mxCell id="iFwu6mjYf4d3JGYgfpNO-24" value="" style="shape=tableRow;horizontal=0;startSize=0;swimlaneHead=0;swimlaneBody=0;top=0;left=0;bottom=0;right=0;collapsible=0;dropTarget=0;fillColor=none;points=[[0,0.5],[1,0.5]];portConstraint=eastwest;strokeColor=inherit;fontSize=16;" parent="iFwu6mjYf4d3JGYgfpNO-20" vertex="1">
          <mxGeometry y="60" width="417" height="30" as="geometry" />
        </mxCell>
        <mxCell id="iFwu6mjYf4d3JGYgfpNO-25" value="FK" style="shape=partialRectangle;html=1;whiteSpace=wrap;connectable=0;fillColor=none;top=0;left=0;bottom=0;right=0;overflow=hidden;strokeColor=inherit;fontSize=16;" parent="iFwu6mjYf4d3JGYgfpNO-24" vertex="1">
          <mxGeometry width="111" height="30" as="geometry">
            <mxRectangle width="111" height="30" as="alternateBounds" />
          </mxGeometry>
        </mxCell>
        <mxCell id="iFwu6mjYf4d3JGYgfpNO-26" value="user" style="shape=partialRectangle;html=1;whiteSpace=wrap;connectable=0;fillColor=none;top=0;left=0;bottom=0;right=0;align=left;spacingLeft=6;overflow=hidden;strokeColor=inherit;fontSize=16;" parent="iFwu6mjYf4d3JGYgfpNO-24" vertex="1">
          <mxGeometry x="111" width="306" height="30" as="geometry">
            <mxRectangle width="306" height="30" as="alternateBounds" />
          </mxGeometry>
        </mxCell>
        <mxCell id="iFwu6mjYf4d3JGYgfpNO-27" value="" style="shape=tableRow;horizontal=0;startSize=0;swimlaneHead=0;swimlaneBody=0;top=0;left=0;bottom=0;right=0;collapsible=0;dropTarget=0;fillColor=none;points=[[0,0.5],[1,0.5]];portConstraint=eastwest;strokeColor=inherit;fontSize=16;" parent="iFwu6mjYf4d3JGYgfpNO-20" vertex="1">
          <mxGeometry y="90" width="417" height="30" as="geometry" />
        </mxCell>
        <mxCell id="iFwu6mjYf4d3JGYgfpNO-28" value="FK" style="shape=partialRectangle;html=1;whiteSpace=wrap;connectable=0;fillColor=none;top=0;left=0;bottom=0;right=0;overflow=hidden;strokeColor=inherit;fontSize=16;" parent="iFwu6mjYf4d3JGYgfpNO-27" vertex="1">
          <mxGeometry width="111" height="30" as="geometry">
            <mxRectangle width="111" height="30" as="alternateBounds" />
          </mxGeometry>
        </mxCell>
        <mxCell id="iFwu6mjYf4d3JGYgfpNO-29" value="account" style="shape=partialRectangle;html=1;whiteSpace=wrap;connectable=0;fillColor=none;top=0;left=0;bottom=0;right=0;align=left;spacingLeft=6;overflow=hidden;strokeColor=inherit;fontSize=16;" parent="iFwu6mjYf4d3JGYgfpNO-27" vertex="1">
          <mxGeometry x="111" width="306" height="30" as="geometry">
            <mxRectangle width="306" height="30" as="alternateBounds" />
          </mxGeometry>
        </mxCell>
        <mxCell id="iFwu6mjYf4d3JGYgfpNO-40" value="" style="shape=tableRow;horizontal=0;startSize=0;swimlaneHead=0;swimlaneBody=0;top=0;left=0;bottom=0;right=0;collapsible=0;dropTarget=0;fillColor=none;points=[[0,0.5],[1,0.5]];portConstraint=eastwest;strokeColor=inherit;fontSize=16;" parent="iFwu6mjYf4d3JGYgfpNO-20" vertex="1">
          <mxGeometry y="120" width="417" height="30" as="geometry" />
        </mxCell>
        <mxCell id="iFwu6mjYf4d3JGYgfpNO-41" value="choice field" style="shape=partialRectangle;html=1;whiteSpace=wrap;connectable=0;fillColor=none;top=0;left=0;bottom=0;right=0;overflow=hidden;strokeColor=inherit;fontSize=16;" parent="iFwu6mjYf4d3JGYgfpNO-40" vertex="1">
          <mxGeometry width="111" height="30" as="geometry">
            <mxRectangle width="111" height="30" as="alternateBounds" />
          </mxGeometry>
        </mxCell>
        <mxCell id="iFwu6mjYf4d3JGYgfpNO-42" value="type (income or exppence)" style="shape=partialRectangle;html=1;whiteSpace=wrap;connectable=0;fillColor=none;top=0;left=0;bottom=0;right=0;align=left;spacingLeft=6;overflow=hidden;strokeColor=inherit;fontSize=16;" parent="iFwu6mjYf4d3JGYgfpNO-40" vertex="1">
          <mxGeometry x="111" width="306" height="30" as="geometry">
            <mxRectangle width="306" height="30" as="alternateBounds" />
          </mxGeometry>
        </mxCell>
        <mxCell id="iFwu6mjYf4d3JGYgfpNO-46" value="" style="shape=tableRow;horizontal=0;startSize=0;swimlaneHead=0;swimlaneBody=0;top=0;left=0;bottom=0;right=0;collapsible=0;dropTarget=0;fillColor=none;points=[[0,0.5],[1,0.5]];portConstraint=eastwest;strokeColor=inherit;fontSize=16;" parent="iFwu6mjYf4d3JGYgfpNO-20" vertex="1">
          <mxGeometry y="150" width="417" height="30" as="geometry" />
        </mxCell>
        <mxCell id="iFwu6mjYf4d3JGYgfpNO-47" value="FK" style="shape=partialRectangle;html=1;whiteSpace=wrap;connectable=0;fillColor=none;top=0;left=0;bottom=0;right=0;overflow=hidden;strokeColor=inherit;fontSize=16;" parent="iFwu6mjYf4d3JGYgfpNO-46" vertex="1">
          <mxGeometry width="111" height="30" as="geometry">
            <mxRectangle width="111" height="30" as="alternateBounds" />
          </mxGeometry>
        </mxCell>
        <mxCell id="iFwu6mjYf4d3JGYgfpNO-48" value="category (null true if it was an income)" style="shape=partialRectangle;html=1;whiteSpace=wrap;connectable=0;fillColor=none;top=0;left=0;bottom=0;right=0;align=left;spacingLeft=6;overflow=hidden;strokeColor=inherit;fontSize=16;" parent="iFwu6mjYf4d3JGYgfpNO-46" vertex="1">
          <mxGeometry x="111" width="306" height="30" as="geometry">
            <mxRectangle width="306" height="30" as="alternateBounds" />
          </mxGeometry>
        </mxCell>
        <mxCell id="iFwu6mjYf4d3JGYgfpNO-64" value="" style="shape=tableRow;horizontal=0;startSize=0;swimlaneHead=0;swimlaneBody=0;top=0;left=0;bottom=0;right=0;collapsible=0;dropTarget=0;fillColor=none;points=[[0,0.5],[1,0.5]];portConstraint=eastwest;strokeColor=inherit;fontSize=16;" parent="iFwu6mjYf4d3JGYgfpNO-20" vertex="1">
          <mxGeometry y="180" width="417" height="30" as="geometry" />
        </mxCell>
        <mxCell id="iFwu6mjYf4d3JGYgfpNO-65" value="date time field" style="shape=partialRectangle;html=1;whiteSpace=wrap;connectable=0;fillColor=none;top=0;left=0;bottom=0;right=0;overflow=hidden;strokeColor=inherit;fontSize=16;" parent="iFwu6mjYf4d3JGYgfpNO-64" vertex="1">
          <mxGeometry width="111" height="30" as="geometry">
            <mxRectangle width="111" height="30" as="alternateBounds" />
          </mxGeometry>
        </mxCell>
        <mxCell id="iFwu6mjYf4d3JGYgfpNO-66" value="date" style="shape=partialRectangle;html=1;whiteSpace=wrap;connectable=0;fillColor=none;top=0;left=0;bottom=0;right=0;align=left;spacingLeft=6;overflow=hidden;strokeColor=inherit;fontSize=16;" parent="iFwu6mjYf4d3JGYgfpNO-64" vertex="1">
          <mxGeometry x="111" width="306" height="30" as="geometry">
            <mxRectangle width="306" height="30" as="alternateBounds" />
          </mxGeometry>
        </mxCell>
        <mxCell id="iFwu6mjYf4d3JGYgfpNO-95" value="" style="shape=tableRow;horizontal=0;startSize=0;swimlaneHead=0;swimlaneBody=0;top=0;left=0;bottom=0;right=0;collapsible=0;dropTarget=0;fillColor=none;points=[[0,0.5],[1,0.5]];portConstraint=eastwest;strokeColor=inherit;fontSize=16;" parent="iFwu6mjYf4d3JGYgfpNO-20" vertex="1">
          <mxGeometry y="210" width="417" height="30" as="geometry" />
        </mxCell>
        <mxCell id="iFwu6mjYf4d3JGYgfpNO-96" value="text" style="shape=partialRectangle;html=1;whiteSpace=wrap;connectable=0;fillColor=none;top=0;left=0;bottom=0;right=0;overflow=hidden;strokeColor=inherit;fontSize=16;" parent="iFwu6mjYf4d3JGYgfpNO-95" vertex="1">
          <mxGeometry width="111" height="30" as="geometry">
            <mxRectangle width="111" height="30" as="alternateBounds" />
          </mxGeometry>
        </mxCell>
        <mxCell id="iFwu6mjYf4d3JGYgfpNO-97" value="description (null true)" style="shape=partialRectangle;html=1;whiteSpace=wrap;connectable=0;fillColor=none;top=0;left=0;bottom=0;right=0;align=left;spacingLeft=6;overflow=hidden;strokeColor=inherit;fontSize=16;" parent="iFwu6mjYf4d3JGYgfpNO-95" vertex="1">
          <mxGeometry x="111" width="306" height="30" as="geometry">
            <mxRectangle width="306" height="30" as="alternateBounds" />
          </mxGeometry>
        </mxCell>
        <mxCell id="iFwu6mjYf4d3JGYgfpNO-30" value="account" style="shape=table;startSize=30;container=1;collapsible=0;childLayout=tableLayout;fixedRows=1;rowLines=0;fontStyle=0;strokeColor=default;fontSize=16;" parent="1" vertex="1">
          <mxGeometry x="497" y="192" width="180" height="120" as="geometry" />
        </mxCell>
        <mxCell id="iFwu6mjYf4d3JGYgfpNO-31" value="" style="shape=tableRow;horizontal=0;startSize=0;swimlaneHead=0;swimlaneBody=0;top=0;left=0;bottom=0;right=0;collapsible=0;dropTarget=0;fillColor=none;points=[[0,0.5],[1,0.5]];portConstraint=eastwest;strokeColor=inherit;fontSize=16;" parent="iFwu6mjYf4d3JGYgfpNO-30" vertex="1">
          <mxGeometry y="30" width="180" height="30" as="geometry" />
        </mxCell>
        <mxCell id="iFwu6mjYf4d3JGYgfpNO-32" value="str" style="shape=partialRectangle;html=1;whiteSpace=wrap;connectable=0;fillColor=none;top=0;left=0;bottom=0;right=0;overflow=hidden;pointerEvents=1;strokeColor=inherit;fontSize=16;" parent="iFwu6mjYf4d3JGYgfpNO-31" vertex="1">
          <mxGeometry width="40" height="30" as="geometry">
            <mxRectangle width="40" height="30" as="alternateBounds" />
          </mxGeometry>
        </mxCell>
        <mxCell id="iFwu6mjYf4d3JGYgfpNO-33" value="name" style="shape=partialRectangle;html=1;whiteSpace=wrap;connectable=0;fillColor=none;top=0;left=0;bottom=0;right=0;align=left;spacingLeft=6;overflow=hidden;strokeColor=inherit;fontSize=16;" parent="iFwu6mjYf4d3JGYgfpNO-31" vertex="1">
          <mxGeometry x="40" width="140" height="30" as="geometry">
            <mxRectangle width="140" height="30" as="alternateBounds" />
          </mxGeometry>
        </mxCell>
        <mxCell id="iFwu6mjYf4d3JGYgfpNO-34" value="" style="shape=tableRow;horizontal=0;startSize=0;swimlaneHead=0;swimlaneBody=0;top=0;left=0;bottom=0;right=0;collapsible=0;dropTarget=0;fillColor=none;points=[[0,0.5],[1,0.5]];portConstraint=eastwest;strokeColor=inherit;fontSize=16;" parent="iFwu6mjYf4d3JGYgfpNO-30" vertex="1">
          <mxGeometry y="60" width="180" height="30" as="geometry" />
        </mxCell>
        <mxCell id="iFwu6mjYf4d3JGYgfpNO-35" value="int" style="shape=partialRectangle;html=1;whiteSpace=wrap;connectable=0;fillColor=none;top=0;left=0;bottom=0;right=0;overflow=hidden;strokeColor=inherit;fontSize=16;" parent="iFwu6mjYf4d3JGYgfpNO-34" vertex="1">
          <mxGeometry width="40" height="30" as="geometry">
            <mxRectangle width="40" height="30" as="alternateBounds" />
          </mxGeometry>
        </mxCell>
        <mxCell id="iFwu6mjYf4d3JGYgfpNO-36" value="balance" style="shape=partialRectangle;html=1;whiteSpace=wrap;connectable=0;fillColor=none;top=0;left=0;bottom=0;right=0;align=left;spacingLeft=6;overflow=hidden;strokeColor=inherit;fontSize=16;" parent="iFwu6mjYf4d3JGYgfpNO-34" vertex="1">
          <mxGeometry x="40" width="140" height="30" as="geometry">
            <mxRectangle width="140" height="30" as="alternateBounds" />
          </mxGeometry>
        </mxCell>
        <mxCell id="iFwu6mjYf4d3JGYgfpNO-43" value="" style="shape=tableRow;horizontal=0;startSize=0;swimlaneHead=0;swimlaneBody=0;top=0;left=0;bottom=0;right=0;collapsible=0;dropTarget=0;fillColor=none;points=[[0,0.5],[1,0.5]];portConstraint=eastwest;strokeColor=inherit;fontSize=16;" parent="iFwu6mjYf4d3JGYgfpNO-30" vertex="1">
          <mxGeometry y="90" width="180" height="30" as="geometry" />
        </mxCell>
        <mxCell id="iFwu6mjYf4d3JGYgfpNO-44" value="FK" style="shape=partialRectangle;html=1;whiteSpace=wrap;connectable=0;fillColor=none;top=0;left=0;bottom=0;right=0;overflow=hidden;strokeColor=inherit;fontSize=16;" parent="iFwu6mjYf4d3JGYgfpNO-43" vertex="1">
          <mxGeometry width="40" height="30" as="geometry">
            <mxRectangle width="40" height="30" as="alternateBounds" />
          </mxGeometry>
        </mxCell>
        <mxCell id="iFwu6mjYf4d3JGYgfpNO-45" value="user" style="shape=partialRectangle;html=1;whiteSpace=wrap;connectable=0;fillColor=none;top=0;left=0;bottom=0;right=0;align=left;spacingLeft=6;overflow=hidden;strokeColor=inherit;fontSize=16;" parent="iFwu6mjYf4d3JGYgfpNO-43" vertex="1">
          <mxGeometry x="40" width="140" height="30" as="geometry">
            <mxRectangle width="140" height="30" as="alternateBounds" />
          </mxGeometry>
        </mxCell>
        <mxCell id="iFwu6mjYf4d3JGYgfpNO-49" value="category" style="shape=table;startSize=30;container=1;collapsible=0;childLayout=tableLayout;fixedRows=1;rowLines=0;fontStyle=0;strokeColor=#001DBC;fontSize=16;fillColor=#0050ef;fontColor=#ffffff;" parent="1" vertex="1">
          <mxGeometry x="497" y="363" width="180" height="120" as="geometry" />
        </mxCell>
        <mxCell id="iFwu6mjYf4d3JGYgfpNO-50" value="" style="shape=tableRow;horizontal=0;startSize=0;swimlaneHead=0;swimlaneBody=0;top=0;left=0;bottom=0;right=0;collapsible=0;dropTarget=0;fillColor=none;points=[[0,0.5],[1,0.5]];portConstraint=eastwest;strokeColor=inherit;fontSize=16;" parent="iFwu6mjYf4d3JGYgfpNO-49" vertex="1">
          <mxGeometry y="30" width="180" height="30" as="geometry" />
        </mxCell>
        <mxCell id="iFwu6mjYf4d3JGYgfpNO-51" value="str" style="shape=partialRectangle;html=1;whiteSpace=wrap;connectable=0;fillColor=none;top=0;left=0;bottom=0;right=0;overflow=hidden;pointerEvents=1;strokeColor=inherit;fontSize=16;" parent="iFwu6mjYf4d3JGYgfpNO-50" vertex="1">
          <mxGeometry width="40" height="30" as="geometry">
            <mxRectangle width="40" height="30" as="alternateBounds" />
          </mxGeometry>
        </mxCell>
        <mxCell id="iFwu6mjYf4d3JGYgfpNO-52" value="name" style="shape=partialRectangle;html=1;whiteSpace=wrap;connectable=0;fillColor=none;top=0;left=0;bottom=0;right=0;align=left;spacingLeft=6;overflow=hidden;strokeColor=inherit;fontSize=16;" parent="iFwu6mjYf4d3JGYgfpNO-50" vertex="1">
          <mxGeometry x="40" width="140" height="30" as="geometry">
            <mxRectangle width="140" height="30" as="alternateBounds" />
          </mxGeometry>
        </mxCell>
        <mxCell id="iFwu6mjYf4d3JGYgfpNO-53" value="" style="shape=tableRow;horizontal=0;startSize=0;swimlaneHead=0;swimlaneBody=0;top=0;left=0;bottom=0;right=0;collapsible=0;dropTarget=0;fillColor=none;points=[[0,0.5],[1,0.5]];portConstraint=eastwest;strokeColor=inherit;fontSize=16;" parent="iFwu6mjYf4d3JGYgfpNO-49" vertex="1">
          <mxGeometry y="60" width="180" height="30" as="geometry" />
        </mxCell>
        <mxCell id="iFwu6mjYf4d3JGYgfpNO-54" value="FK" style="shape=partialRectangle;html=1;whiteSpace=wrap;connectable=0;fillColor=none;top=0;left=0;bottom=0;right=0;overflow=hidden;strokeColor=inherit;fontSize=16;" parent="iFwu6mjYf4d3JGYgfpNO-53" vertex="1">
          <mxGeometry width="40" height="30" as="geometry">
            <mxRectangle width="40" height="30" as="alternateBounds" />
          </mxGeometry>
        </mxCell>
        <mxCell id="iFwu6mjYf4d3JGYgfpNO-55" value="user" style="shape=partialRectangle;html=1;whiteSpace=wrap;connectable=0;fillColor=none;top=0;left=0;bottom=0;right=0;align=left;spacingLeft=6;overflow=hidden;strokeColor=inherit;fontSize=16;" parent="iFwu6mjYf4d3JGYgfpNO-53" vertex="1">
          <mxGeometry x="40" width="140" height="30" as="geometry">
            <mxRectangle width="140" height="30" as="alternateBounds" />
          </mxGeometry>
        </mxCell>
        <mxCell id="iFwu6mjYf4d3JGYgfpNO-92" value="" style="shape=tableRow;horizontal=0;startSize=0;swimlaneHead=0;swimlaneBody=0;top=0;left=0;bottom=0;right=0;collapsible=0;dropTarget=0;fillColor=none;points=[[0,0.5],[1,0.5]];portConstraint=eastwest;strokeColor=inherit;fontSize=16;" parent="iFwu6mjYf4d3JGYgfpNO-49" vertex="1">
          <mxGeometry y="90" width="180" height="30" as="geometry" />
        </mxCell>
        <mxCell id="iFwu6mjYf4d3JGYgfpNO-93" value="int" style="shape=partialRectangle;html=1;whiteSpace=wrap;connectable=0;fillColor=none;top=0;left=0;bottom=0;right=0;overflow=hidden;strokeColor=inherit;fontSize=16;" parent="iFwu6mjYf4d3JGYgfpNO-92" vertex="1">
          <mxGeometry width="40" height="30" as="geometry">
            <mxRectangle width="40" height="30" as="alternateBounds" />
          </mxGeometry>
        </mxCell>
        <mxCell id="iFwu6mjYf4d3JGYgfpNO-94" value="balance" style="shape=partialRectangle;html=1;whiteSpace=wrap;connectable=0;fillColor=none;top=0;left=0;bottom=0;right=0;align=left;spacingLeft=6;overflow=hidden;strokeColor=inherit;fontSize=16;" parent="iFwu6mjYf4d3JGYgfpNO-92" vertex="1">
          <mxGeometry x="40" width="140" height="30" as="geometry">
            <mxRectangle width="140" height="30" as="alternateBounds" />
          </mxGeometry>
        </mxCell>
        <mxCell id="iFwu6mjYf4d3JGYgfpNO-59" style="edgeStyle=orthogonalEdgeStyle;rounded=0;orthogonalLoop=1;jettySize=auto;html=1;exitX=0;exitY=0.5;exitDx=0;exitDy=0;entryX=1.008;entryY=0.117;entryDx=0;entryDy=0;entryPerimeter=0;curved=1;endArrow=none;endFill=0;startArrow=ERmany;startFill=0;startSize=14;endSize=6;sourcePerimeterSpacing=0;strokeWidth=3;" parent="1" source="iFwu6mjYf4d3JGYgfpNO-43" target="iFwu6mjYf4d3JGYgfpNO-1" edge="1">
          <mxGeometry relative="1" as="geometry">
            <Array as="points">
              <mxPoint x="389" y="297" />
              <mxPoint x="389" y="15" />
            </Array>
          </mxGeometry>
        </mxCell>
        <mxCell id="iFwu6mjYf4d3JGYgfpNO-60" style="edgeStyle=orthogonalEdgeStyle;rounded=0;orthogonalLoop=1;jettySize=auto;html=1;exitX=0;exitY=0.5;exitDx=0;exitDy=0;entryX=0.997;entryY=0.117;entryDx=0;entryDy=0;entryPerimeter=0;curved=1;strokeWidth=3;endArrow=none;endFill=0;startArrow=ERmany;startFill=0;fillColor=#a20025;strokeColor=#6F0000;startSize=13;" parent="1" source="iFwu6mjYf4d3JGYgfpNO-24" target="iFwu6mjYf4d3JGYgfpNO-1" edge="1">
          <mxGeometry relative="1" as="geometry" />
        </mxCell>
        <mxCell id="iFwu6mjYf4d3JGYgfpNO-61" style="edgeStyle=orthogonalEdgeStyle;rounded=0;orthogonalLoop=1;jettySize=auto;html=1;exitX=0;exitY=0.5;exitDx=0;exitDy=0;entryX=1.006;entryY=0.142;entryDx=0;entryDy=0;entryPerimeter=0;curved=1;startArrow=ERmany;startFill=0;endArrow=none;endFill=0;startSize=12;fillColor=#a20025;strokeColor=#6F0000;strokeWidth=3;" parent="1" source="iFwu6mjYf4d3JGYgfpNO-27" target="iFwu6mjYf4d3JGYgfpNO-30" edge="1">
          <mxGeometry relative="1" as="geometry">
            <Array as="points">
              <mxPoint x="713" y="129" />
              <mxPoint x="713" y="209" />
            </Array>
          </mxGeometry>
        </mxCell>
        <mxCell id="iFwu6mjYf4d3JGYgfpNO-62" style="edgeStyle=orthogonalEdgeStyle;rounded=0;orthogonalLoop=1;jettySize=auto;html=1;exitX=0;exitY=0.5;exitDx=0;exitDy=0;entryX=1;entryY=0.25;entryDx=0;entryDy=0;curved=1;startSize=10;strokeWidth=3;startArrow=ERmany;startFill=0;endArrow=none;endFill=0;fillColor=#a20025;strokeColor=#6F0000;" parent="1" source="iFwu6mjYf4d3JGYgfpNO-46" target="iFwu6mjYf4d3JGYgfpNO-49" edge="1">
          <mxGeometry relative="1" as="geometry" />
        </mxCell>
        <mxCell id="iFwu6mjYf4d3JGYgfpNO-63" style="edgeStyle=orthogonalEdgeStyle;rounded=0;orthogonalLoop=1;jettySize=auto;html=1;exitX=0;exitY=0.5;exitDx=0;exitDy=0;entryX=0.997;entryY=0.092;entryDx=0;entryDy=0;entryPerimeter=0;curved=1;fillColor=#6a00ff;strokeColor=#3700CC;startSize=12;strokeWidth=3;startArrow=ERmany;startFill=0;endArrow=none;endFill=0;" parent="1" source="iFwu6mjYf4d3JGYgfpNO-53" target="iFwu6mjYf4d3JGYgfpNO-1" edge="1">
          <mxGeometry relative="1" as="geometry" />
        </mxCell>
        <mxCell id="iFwu6mjYf4d3JGYgfpNO-67" value="assets and liabilities" style="shape=table;startSize=30;container=1;collapsible=0;childLayout=tableLayout;fixedRows=1;rowLines=0;fontStyle=0;strokeColor=#005700;fontSize=16;fillColor=#008a00;fontColor=#ffffff;" parent="1" vertex="1">
          <mxGeometry x="845" y="-287" width="259.75" height="240" as="geometry" />
        </mxCell>
        <mxCell id="iFwu6mjYf4d3JGYgfpNO-68" value="" style="shape=tableRow;horizontal=0;startSize=0;swimlaneHead=0;swimlaneBody=0;top=0;left=0;bottom=0;right=0;collapsible=0;dropTarget=0;fillColor=none;points=[[0,0.5],[1,0.5]];portConstraint=eastwest;strokeColor=inherit;fontSize=16;" parent="iFwu6mjYf4d3JGYgfpNO-67" vertex="1">
          <mxGeometry y="30" width="259.75" height="30" as="geometry" />
        </mxCell>
        <mxCell id="iFwu6mjYf4d3JGYgfpNO-69" value="str" style="shape=partialRectangle;html=1;whiteSpace=wrap;connectable=0;fillColor=none;top=0;left=0;bottom=0;right=0;overflow=hidden;pointerEvents=1;strokeColor=inherit;fontSize=16;" parent="iFwu6mjYf4d3JGYgfpNO-68" vertex="1">
          <mxGeometry width="85" height="30" as="geometry">
            <mxRectangle width="85" height="30" as="alternateBounds" />
          </mxGeometry>
        </mxCell>
        <mxCell id="iFwu6mjYf4d3JGYgfpNO-70" value="name" style="shape=partialRectangle;html=1;whiteSpace=wrap;connectable=0;fillColor=none;top=0;left=0;bottom=0;right=0;align=left;spacingLeft=6;overflow=hidden;strokeColor=inherit;fontSize=16;" parent="iFwu6mjYf4d3JGYgfpNO-68" vertex="1">
          <mxGeometry x="85" width="175" height="30" as="geometry">
            <mxRectangle width="175" height="30" as="alternateBounds" />
          </mxGeometry>
        </mxCell>
        <mxCell id="iFwu6mjYf4d3JGYgfpNO-71" value="" style="shape=tableRow;horizontal=0;startSize=0;swimlaneHead=0;swimlaneBody=0;top=0;left=0;bottom=0;right=0;collapsible=0;dropTarget=0;fillColor=none;points=[[0,0.5],[1,0.5]];portConstraint=eastwest;strokeColor=inherit;fontSize=16;" parent="iFwu6mjYf4d3JGYgfpNO-67" vertex="1">
          <mxGeometry y="60" width="259.75" height="30" as="geometry" />
        </mxCell>
        <mxCell id="iFwu6mjYf4d3JGYgfpNO-72" value="text" style="shape=partialRectangle;html=1;whiteSpace=wrap;connectable=0;fillColor=none;top=0;left=0;bottom=0;right=0;overflow=hidden;strokeColor=inherit;fontSize=16;" parent="iFwu6mjYf4d3JGYgfpNO-71" vertex="1">
          <mxGeometry width="85" height="30" as="geometry">
            <mxRectangle width="85" height="30" as="alternateBounds" />
          </mxGeometry>
        </mxCell>
        <mxCell id="iFwu6mjYf4d3JGYgfpNO-73" value="description (null true)" style="shape=partialRectangle;html=1;whiteSpace=wrap;connectable=0;fillColor=none;top=0;left=0;bottom=0;right=0;align=left;spacingLeft=6;overflow=hidden;strokeColor=inherit;fontSize=16;" parent="iFwu6mjYf4d3JGYgfpNO-71" vertex="1">
          <mxGeometry x="85" width="175" height="30" as="geometry">
            <mxRectangle width="175" height="30" as="alternateBounds" />
          </mxGeometry>
        </mxCell>
        <mxCell id="iFwu6mjYf4d3JGYgfpNO-74" value="" style="shape=tableRow;horizontal=0;startSize=0;swimlaneHead=0;swimlaneBody=0;top=0;left=0;bottom=0;right=0;collapsible=0;dropTarget=0;fillColor=none;points=[[0,0.5],[1,0.5]];portConstraint=eastwest;strokeColor=inherit;fontSize=16;" parent="iFwu6mjYf4d3JGYgfpNO-67" vertex="1">
          <mxGeometry y="90" width="259.75" height="30" as="geometry" />
        </mxCell>
        <mxCell id="iFwu6mjYf4d3JGYgfpNO-75" value="choice field" style="shape=partialRectangle;html=1;whiteSpace=wrap;connectable=0;fillColor=none;top=0;left=0;bottom=0;right=0;overflow=hidden;strokeColor=inherit;fontSize=16;" parent="iFwu6mjYf4d3JGYgfpNO-74" vertex="1">
          <mxGeometry width="85" height="30" as="geometry">
            <mxRectangle width="85" height="30" as="alternateBounds" />
          </mxGeometry>
        </mxCell>
        <mxCell id="iFwu6mjYf4d3JGYgfpNO-76" value="type (asset or liability)" style="shape=partialRectangle;html=1;whiteSpace=wrap;connectable=0;fillColor=none;top=0;left=0;bottom=0;right=0;align=left;spacingLeft=6;overflow=hidden;strokeColor=inherit;fontSize=16;" parent="iFwu6mjYf4d3JGYgfpNO-74" vertex="1">
          <mxGeometry x="85" width="175" height="30" as="geometry">
            <mxRectangle width="175" height="30" as="alternateBounds" />
          </mxGeometry>
        </mxCell>
        <mxCell id="iFwu6mjYf4d3JGYgfpNO-77" value="" style="shape=tableRow;horizontal=0;startSize=0;swimlaneHead=0;swimlaneBody=0;top=0;left=0;bottom=0;right=0;collapsible=0;dropTarget=0;fillColor=none;points=[[0,0.5],[1,0.5]];portConstraint=eastwest;strokeColor=inherit;fontSize=16;" parent="iFwu6mjYf4d3JGYgfpNO-67" vertex="1">
          <mxGeometry y="120" width="259.75" height="30" as="geometry" />
        </mxCell>
        <mxCell id="iFwu6mjYf4d3JGYgfpNO-78" value="int" style="shape=partialRectangle;html=1;whiteSpace=wrap;connectable=0;fillColor=none;top=0;left=0;bottom=0;right=0;overflow=hidden;strokeColor=inherit;fontSize=16;" parent="iFwu6mjYf4d3JGYgfpNO-77" vertex="1">
          <mxGeometry width="85" height="30" as="geometry">
            <mxRectangle width="85" height="30" as="alternateBounds" />
          </mxGeometry>
        </mxCell>
        <mxCell id="iFwu6mjYf4d3JGYgfpNO-79" value="value (per month)" style="shape=partialRectangle;html=1;whiteSpace=wrap;connectable=0;fillColor=none;top=0;left=0;bottom=0;right=0;align=left;spacingLeft=6;overflow=hidden;strokeColor=inherit;fontSize=16;" parent="iFwu6mjYf4d3JGYgfpNO-77" vertex="1">
          <mxGeometry x="85" width="175" height="30" as="geometry">
            <mxRectangle width="175" height="30" as="alternateBounds" />
          </mxGeometry>
        </mxCell>
        <mxCell id="iFwu6mjYf4d3JGYgfpNO-89" value="" style="shape=tableRow;horizontal=0;startSize=0;swimlaneHead=0;swimlaneBody=0;top=0;left=0;bottom=0;right=0;collapsible=0;dropTarget=0;fillColor=none;points=[[0,0.5],[1,0.5]];portConstraint=eastwest;strokeColor=inherit;fontSize=16;" parent="iFwu6mjYf4d3JGYgfpNO-67" vertex="1">
          <mxGeometry y="150" width="259.75" height="30" as="geometry" />
        </mxCell>
        <mxCell id="iFwu6mjYf4d3JGYgfpNO-90" value="int" style="shape=partialRectangle;html=1;whiteSpace=wrap;connectable=0;fillColor=none;top=0;left=0;bottom=0;right=0;overflow=hidden;strokeColor=inherit;fontSize=16;" parent="iFwu6mjYf4d3JGYgfpNO-89" vertex="1">
          <mxGeometry width="85" height="30" as="geometry">
            <mxRectangle width="85" height="30" as="alternateBounds" />
          </mxGeometry>
        </mxCell>
        <mxCell id="iFwu6mjYf4d3JGYgfpNO-91" value="period (per days)" style="shape=partialRectangle;html=1;whiteSpace=wrap;connectable=0;fillColor=none;top=0;left=0;bottom=0;right=0;align=left;spacingLeft=6;overflow=hidden;strokeColor=inherit;fontSize=16;" parent="iFwu6mjYf4d3JGYgfpNO-89" vertex="1">
          <mxGeometry x="85" width="175" height="30" as="geometry">
            <mxRectangle width="175" height="30" as="alternateBounds" />
          </mxGeometry>
        </mxCell>
        <mxCell id="iFwu6mjYf4d3JGYgfpNO-80" value="" style="shape=tableRow;horizontal=0;startSize=0;swimlaneHead=0;swimlaneBody=0;top=0;left=0;bottom=0;right=0;collapsible=0;dropTarget=0;fillColor=none;points=[[0,0.5],[1,0.5]];portConstraint=eastwest;strokeColor=inherit;fontSize=16;" parent="iFwu6mjYf4d3JGYgfpNO-67" vertex="1">
          <mxGeometry y="180" width="259.75" height="30" as="geometry" />
        </mxCell>
        <mxCell id="iFwu6mjYf4d3JGYgfpNO-81" value="FK" style="shape=partialRectangle;html=1;whiteSpace=wrap;connectable=0;fillColor=none;top=0;left=0;bottom=0;right=0;overflow=hidden;strokeColor=inherit;fontSize=16;" parent="iFwu6mjYf4d3JGYgfpNO-80" vertex="1">
          <mxGeometry width="85" height="30" as="geometry">
            <mxRectangle width="85" height="30" as="alternateBounds" />
          </mxGeometry>
        </mxCell>
        <mxCell id="iFwu6mjYf4d3JGYgfpNO-82" value="user" style="shape=partialRectangle;html=1;whiteSpace=wrap;connectable=0;fillColor=none;top=0;left=0;bottom=0;right=0;align=left;spacingLeft=6;overflow=hidden;strokeColor=inherit;fontSize=16;" parent="iFwu6mjYf4d3JGYgfpNO-80" vertex="1">
          <mxGeometry x="85" width="175" height="30" as="geometry">
            <mxRectangle width="175" height="30" as="alternateBounds" />
          </mxGeometry>
        </mxCell>
        <mxCell id="iFwu6mjYf4d3JGYgfpNO-85" value="" style="shape=tableRow;horizontal=0;startSize=0;swimlaneHead=0;swimlaneBody=0;top=0;left=0;bottom=0;right=0;collapsible=0;dropTarget=0;fillColor=none;points=[[0,0.5],[1,0.5]];portConstraint=eastwest;strokeColor=inherit;fontSize=16;" parent="iFwu6mjYf4d3JGYgfpNO-67" vertex="1">
          <mxGeometry y="210" width="259.75" height="30" as="geometry" />
        </mxCell>
        <mxCell id="iFwu6mjYf4d3JGYgfpNO-86" value="FK" style="shape=partialRectangle;html=1;whiteSpace=wrap;connectable=0;fillColor=none;top=0;left=0;bottom=0;right=0;overflow=hidden;strokeColor=inherit;fontSize=16;" parent="iFwu6mjYf4d3JGYgfpNO-85" vertex="1">
          <mxGeometry width="85" height="30" as="geometry">
            <mxRectangle width="85" height="30" as="alternateBounds" />
          </mxGeometry>
        </mxCell>
        <mxCell id="iFwu6mjYf4d3JGYgfpNO-87" value="account" style="shape=partialRectangle;html=1;whiteSpace=wrap;connectable=0;fillColor=none;top=0;left=0;bottom=0;right=0;align=left;spacingLeft=6;overflow=hidden;strokeColor=inherit;fontSize=16;" parent="iFwu6mjYf4d3JGYgfpNO-85" vertex="1">
          <mxGeometry x="85" width="175" height="30" as="geometry">
            <mxRectangle width="175" height="30" as="alternateBounds" />
          </mxGeometry>
        </mxCell>
        <mxCell id="iFwu6mjYf4d3JGYgfpNO-83" style="edgeStyle=orthogonalEdgeStyle;rounded=0;orthogonalLoop=1;jettySize=auto;html=1;exitX=0;exitY=0.5;exitDx=0;exitDy=0;entryX=0.997;entryY=0.142;entryDx=0;entryDy=0;entryPerimeter=0;curved=1;startArrow=ERmany;startFill=0;endArrow=none;endFill=0;startSize=10;strokeWidth=3;fillColor=#008a00;strokeColor=#005700;" parent="1" source="iFwu6mjYf4d3JGYgfpNO-80" target="iFwu6mjYf4d3JGYgfpNO-1" edge="1">
          <mxGeometry relative="1" as="geometry" />
        </mxCell>
        <mxCell id="iFwu6mjYf4d3JGYgfpNO-84" value="any wealth like salary or any debt that has a repeatedly pattern should inserted here and it will be automaticly add or&amp;nbsp;subtracted from the account" style="whiteSpace=wrap;html=1;shape=mxgraph.basic.oval_callout" parent="1" vertex="1">
          <mxGeometry x="1101" y="-442" width="277" height="157" as="geometry" />
        </mxCell>
        <mxCell id="iFwu6mjYf4d3JGYgfpNO-88" style="edgeStyle=orthogonalEdgeStyle;rounded=0;orthogonalLoop=1;jettySize=auto;html=1;exitX=0;exitY=0.5;exitDx=0;exitDy=0;entryX=1;entryY=0.192;entryDx=0;entryDy=0;entryPerimeter=0;curved=1;endArrow=none;endFill=0;startArrow=ERmany;startFill=0;startSize=10;strokeWidth=3;fillColor=#008a00;strokeColor=#005700;" parent="1" source="iFwu6mjYf4d3JGYgfpNO-85" target="iFwu6mjYf4d3JGYgfpNO-30" edge="1">
          <mxGeometry relative="1" as="geometry" />
        </mxCell>
      </root>
    </mxGraphModel>
  </diagram>
  <diagram id="HDdYwT-Jdylcvp-LknnA" name="Page-2">
    <mxGraphModel dx="1434" dy="841" grid="0" gridSize="10" guides="1" tooltips="1" connect="1" arrows="1" fold="1" page="0" pageScale="1" pageWidth="1169" pageHeight="827" math="0" shadow="0">
      <root>
        <mxCell id="0" />
        <mxCell id="1" parent="0" />
        <mxCell id="nSofzEZUP66_NC4QI2B9-1" value="accounts" style="shape=table;startSize=30;container=1;collapsible=0;childLayout=tableLayout;strokeColor=default;fontSize=16;" vertex="1" parent="1">
          <mxGeometry x="42" y="151" width="839.5" height="270" as="geometry" />
        </mxCell>
        <mxCell id="nSofzEZUP66_NC4QI2B9-2" value="" style="shape=tableRow;horizontal=0;startSize=0;swimlaneHead=0;swimlaneBody=0;strokeColor=inherit;top=0;left=0;bottom=0;right=0;collapsible=0;dropTarget=0;fillColor=none;points=[[0,0.5],[1,0.5]];portConstraint=eastwest;fontSize=16;" vertex="1" parent="nSofzEZUP66_NC4QI2B9-1">
          <mxGeometry y="30" width="839.5" height="40" as="geometry" />
        </mxCell>
        <mxCell id="nSofzEZUP66_NC4QI2B9-3" value="method" style="shape=partialRectangle;html=1;whiteSpace=wrap;connectable=0;strokeColor=inherit;overflow=hidden;fillColor=none;top=0;left=0;bottom=0;right=0;pointerEvents=1;fontSize=16;" vertex="1" parent="nSofzEZUP66_NC4QI2B9-2">
          <mxGeometry width="105" height="40" as="geometry">
            <mxRectangle width="105" height="40" as="alternateBounds" />
          </mxGeometry>
        </mxCell>
        <mxCell id="nSofzEZUP66_NC4QI2B9-22" value="action" style="shape=partialRectangle;html=1;whiteSpace=wrap;connectable=0;strokeColor=inherit;overflow=hidden;fillColor=none;top=0;left=0;bottom=0;right=0;pointerEvents=1;fontSize=16;" vertex="1" parent="nSofzEZUP66_NC4QI2B9-2">
          <mxGeometry x="105" width="155" height="40" as="geometry">
            <mxRectangle width="155" height="40" as="alternateBounds" />
          </mxGeometry>
        </mxCell>
        <mxCell id="nSofzEZUP66_NC4QI2B9-4" value="URL" style="shape=partialRectangle;html=1;whiteSpace=wrap;connectable=0;strokeColor=inherit;overflow=hidden;fillColor=none;top=0;left=0;bottom=0;right=0;pointerEvents=1;fontSize=16;" vertex="1" parent="nSofzEZUP66_NC4QI2B9-2">
          <mxGeometry x="260" width="155" height="40" as="geometry">
            <mxRectangle width="155" height="40" as="alternateBounds" />
          </mxGeometry>
        </mxCell>
        <mxCell id="nSofzEZUP66_NC4QI2B9-5" value="description" style="shape=partialRectangle;html=1;whiteSpace=wrap;connectable=0;strokeColor=inherit;overflow=hidden;fillColor=none;top=0;left=0;bottom=0;right=0;pointerEvents=1;fontSize=16;" vertex="1" parent="nSofzEZUP66_NC4QI2B9-2">
          <mxGeometry x="415" width="425" height="40" as="geometry">
            <mxRectangle width="425" height="40" as="alternateBounds" />
          </mxGeometry>
        </mxCell>
        <mxCell id="nSofzEZUP66_NC4QI2B9-6" value="" style="shape=tableRow;horizontal=0;startSize=0;swimlaneHead=0;swimlaneBody=0;strokeColor=inherit;top=0;left=0;bottom=0;right=0;collapsible=0;dropTarget=0;fillColor=none;points=[[0,0.5],[1,0.5]];portConstraint=eastwest;fontSize=16;" vertex="1" parent="nSofzEZUP66_NC4QI2B9-1">
          <mxGeometry y="70" width="839.5" height="40" as="geometry" />
        </mxCell>
        <mxCell id="nSofzEZUP66_NC4QI2B9-7" value="GET" style="shape=partialRectangle;html=1;whiteSpace=wrap;connectable=0;strokeColor=inherit;overflow=hidden;fillColor=none;top=0;left=0;bottom=0;right=0;pointerEvents=1;fontSize=16;" vertex="1" parent="nSofzEZUP66_NC4QI2B9-6">
          <mxGeometry width="105" height="40" as="geometry">
            <mxRectangle width="105" height="40" as="alternateBounds" />
          </mxGeometry>
        </mxCell>
        <mxCell id="nSofzEZUP66_NC4QI2B9-23" value="list" style="shape=partialRectangle;html=1;whiteSpace=wrap;connectable=0;strokeColor=inherit;overflow=hidden;fillColor=none;top=0;left=0;bottom=0;right=0;pointerEvents=1;fontSize=16;" vertex="1" parent="nSofzEZUP66_NC4QI2B9-6">
          <mxGeometry x="105" width="155" height="40" as="geometry">
            <mxRectangle width="155" height="40" as="alternateBounds" />
          </mxGeometry>
        </mxCell>
        <mxCell id="nSofzEZUP66_NC4QI2B9-8" value="/" style="shape=partialRectangle;html=1;whiteSpace=wrap;connectable=0;strokeColor=inherit;overflow=hidden;fillColor=none;top=0;left=0;bottom=0;right=0;pointerEvents=1;fontSize=16;" vertex="1" parent="nSofzEZUP66_NC4QI2B9-6">
          <mxGeometry x="260" width="155" height="40" as="geometry">
            <mxRectangle width="155" height="40" as="alternateBounds" />
          </mxGeometry>
        </mxCell>
        <mxCell id="nSofzEZUP66_NC4QI2B9-9" value="lists all the accounts of the user" style="shape=partialRectangle;html=1;whiteSpace=wrap;connectable=0;strokeColor=inherit;overflow=hidden;fillColor=none;top=0;left=0;bottom=0;right=0;pointerEvents=1;fontSize=16;" vertex="1" parent="nSofzEZUP66_NC4QI2B9-6">
          <mxGeometry x="415" width="425" height="40" as="geometry">
            <mxRectangle width="425" height="40" as="alternateBounds" />
          </mxGeometry>
        </mxCell>
        <mxCell id="nSofzEZUP66_NC4QI2B9-10" value="" style="shape=tableRow;horizontal=0;startSize=0;swimlaneHead=0;swimlaneBody=0;strokeColor=inherit;top=0;left=0;bottom=0;right=0;collapsible=0;dropTarget=0;fillColor=none;points=[[0,0.5],[1,0.5]];portConstraint=eastwest;fontSize=16;" vertex="1" parent="nSofzEZUP66_NC4QI2B9-1">
          <mxGeometry y="110" width="839.5" height="40" as="geometry" />
        </mxCell>
        <mxCell id="nSofzEZUP66_NC4QI2B9-11" value="POST" style="shape=partialRectangle;html=1;whiteSpace=wrap;connectable=0;strokeColor=inherit;overflow=hidden;fillColor=none;top=0;left=0;bottom=0;right=0;pointerEvents=1;fontSize=16;" vertex="1" parent="nSofzEZUP66_NC4QI2B9-10">
          <mxGeometry width="105" height="40" as="geometry">
            <mxRectangle width="105" height="40" as="alternateBounds" />
          </mxGeometry>
        </mxCell>
        <mxCell id="nSofzEZUP66_NC4QI2B9-25" value="create" style="shape=partialRectangle;html=1;whiteSpace=wrap;connectable=0;strokeColor=inherit;overflow=hidden;fillColor=none;top=0;left=0;bottom=0;right=0;pointerEvents=1;fontSize=16;" vertex="1" parent="nSofzEZUP66_NC4QI2B9-10">
          <mxGeometry x="105" width="155" height="40" as="geometry">
            <mxRectangle width="155" height="40" as="alternateBounds" />
          </mxGeometry>
        </mxCell>
        <mxCell id="nSofzEZUP66_NC4QI2B9-12" value="/" style="shape=partialRectangle;html=1;whiteSpace=wrap;connectable=0;strokeColor=inherit;overflow=hidden;fillColor=none;top=0;left=0;bottom=0;right=0;pointerEvents=1;fontSize=16;" vertex="1" parent="nSofzEZUP66_NC4QI2B9-10">
          <mxGeometry x="260" width="155" height="40" as="geometry">
            <mxRectangle width="155" height="40" as="alternateBounds" />
          </mxGeometry>
        </mxCell>
        <mxCell id="nSofzEZUP66_NC4QI2B9-13" value="creates an account" style="shape=partialRectangle;html=1;whiteSpace=wrap;connectable=0;strokeColor=inherit;overflow=hidden;fillColor=none;top=0;left=0;bottom=0;right=0;pointerEvents=1;fontSize=16;" vertex="1" parent="nSofzEZUP66_NC4QI2B9-10">
          <mxGeometry x="415" width="425" height="40" as="geometry">
            <mxRectangle width="425" height="40" as="alternateBounds" />
          </mxGeometry>
        </mxCell>
        <mxCell id="nSofzEZUP66_NC4QI2B9-18" value="" style="shape=tableRow;horizontal=0;startSize=0;swimlaneHead=0;swimlaneBody=0;strokeColor=inherit;top=0;left=0;bottom=0;right=0;collapsible=0;dropTarget=0;fillColor=none;points=[[0,0.5],[1,0.5]];portConstraint=eastwest;fontSize=16;" vertex="1" parent="nSofzEZUP66_NC4QI2B9-1">
          <mxGeometry y="150" width="839.5" height="40" as="geometry" />
        </mxCell>
        <mxCell id="nSofzEZUP66_NC4QI2B9-19" value="GET" style="shape=partialRectangle;html=1;whiteSpace=wrap;connectable=0;strokeColor=inherit;overflow=hidden;fillColor=none;top=0;left=0;bottom=0;right=0;pointerEvents=1;fontSize=16;" vertex="1" parent="nSofzEZUP66_NC4QI2B9-18">
          <mxGeometry width="105" height="40" as="geometry">
            <mxRectangle width="105" height="40" as="alternateBounds" />
          </mxGeometry>
        </mxCell>
        <mxCell id="nSofzEZUP66_NC4QI2B9-24" value="retrieve" style="shape=partialRectangle;html=1;whiteSpace=wrap;connectable=0;strokeColor=inherit;overflow=hidden;fillColor=none;top=0;left=0;bottom=0;right=0;pointerEvents=1;fontSize=16;" vertex="1" parent="nSofzEZUP66_NC4QI2B9-18">
          <mxGeometry x="105" width="155" height="40" as="geometry">
            <mxRectangle width="155" height="40" as="alternateBounds" />
          </mxGeometry>
        </mxCell>
        <mxCell id="nSofzEZUP66_NC4QI2B9-20" value="/pk" style="shape=partialRectangle;html=1;whiteSpace=wrap;connectable=0;strokeColor=inherit;overflow=hidden;fillColor=none;top=0;left=0;bottom=0;right=0;pointerEvents=1;fontSize=16;" vertex="1" parent="nSofzEZUP66_NC4QI2B9-18">
          <mxGeometry x="260" width="155" height="40" as="geometry">
            <mxRectangle width="155" height="40" as="alternateBounds" />
          </mxGeometry>
        </mxCell>
        <mxCell id="nSofzEZUP66_NC4QI2B9-21" value="gets the specific acount" style="shape=partialRectangle;html=1;whiteSpace=wrap;connectable=0;strokeColor=inherit;overflow=hidden;fillColor=none;top=0;left=0;bottom=0;right=0;pointerEvents=1;fontSize=16;" vertex="1" parent="nSofzEZUP66_NC4QI2B9-18">
          <mxGeometry x="415" width="425" height="40" as="geometry">
            <mxRectangle width="425" height="40" as="alternateBounds" />
          </mxGeometry>
        </mxCell>
        <mxCell id="nSofzEZUP66_NC4QI2B9-14" value="" style="shape=tableRow;horizontal=0;startSize=0;swimlaneHead=0;swimlaneBody=0;strokeColor=inherit;top=0;left=0;bottom=0;right=0;collapsible=0;dropTarget=0;fillColor=none;points=[[0,0.5],[1,0.5]];portConstraint=eastwest;fontSize=16;" vertex="1" parent="nSofzEZUP66_NC4QI2B9-1">
          <mxGeometry y="190" width="839.5" height="40" as="geometry" />
        </mxCell>
        <mxCell id="nSofzEZUP66_NC4QI2B9-15" value="PUT/PATCH" style="shape=partialRectangle;html=1;whiteSpace=wrap;connectable=0;strokeColor=inherit;overflow=hidden;fillColor=none;top=0;left=0;bottom=0;right=0;pointerEvents=1;fontSize=16;" vertex="1" parent="nSofzEZUP66_NC4QI2B9-14">
          <mxGeometry width="105" height="40" as="geometry">
            <mxRectangle width="105" height="40" as="alternateBounds" />
          </mxGeometry>
        </mxCell>
        <mxCell id="nSofzEZUP66_NC4QI2B9-26" value="update" style="shape=partialRectangle;html=1;whiteSpace=wrap;connectable=0;strokeColor=inherit;overflow=hidden;fillColor=none;top=0;left=0;bottom=0;right=0;pointerEvents=1;fontSize=16;" vertex="1" parent="nSofzEZUP66_NC4QI2B9-14">
          <mxGeometry x="105" width="155" height="40" as="geometry">
            <mxRectangle width="155" height="40" as="alternateBounds" />
          </mxGeometry>
        </mxCell>
        <mxCell id="nSofzEZUP66_NC4QI2B9-16" value="/pk" style="shape=partialRectangle;html=1;whiteSpace=wrap;connectable=0;strokeColor=inherit;overflow=hidden;fillColor=none;top=0;left=0;bottom=0;right=0;pointerEvents=1;fontSize=16;" vertex="1" parent="nSofzEZUP66_NC4QI2B9-14">
          <mxGeometry x="260" width="155" height="40" as="geometry">
            <mxRectangle width="155" height="40" as="alternateBounds" />
          </mxGeometry>
        </mxCell>
        <mxCell id="nSofzEZUP66_NC4QI2B9-17" value="updates the account" style="shape=partialRectangle;html=1;whiteSpace=wrap;connectable=0;strokeColor=inherit;overflow=hidden;fillColor=none;top=0;left=0;bottom=0;right=0;pointerEvents=1;fontSize=16;" vertex="1" parent="nSofzEZUP66_NC4QI2B9-14">
          <mxGeometry x="415" width="425" height="40" as="geometry">
            <mxRectangle width="425" height="40" as="alternateBounds" />
          </mxGeometry>
        </mxCell>
        <mxCell id="nSofzEZUP66_NC4QI2B9-27" value="" style="shape=tableRow;horizontal=0;startSize=0;swimlaneHead=0;swimlaneBody=0;strokeColor=inherit;top=0;left=0;bottom=0;right=0;collapsible=0;dropTarget=0;fillColor=none;points=[[0,0.5],[1,0.5]];portConstraint=eastwest;fontSize=16;" vertex="1" parent="nSofzEZUP66_NC4QI2B9-1">
          <mxGeometry y="230" width="839.5" height="40" as="geometry" />
        </mxCell>
        <mxCell id="nSofzEZUP66_NC4QI2B9-28" value="DELETE" style="shape=partialRectangle;html=1;whiteSpace=wrap;connectable=0;strokeColor=inherit;overflow=hidden;fillColor=none;top=0;left=0;bottom=0;right=0;pointerEvents=1;fontSize=16;" vertex="1" parent="nSofzEZUP66_NC4QI2B9-27">
          <mxGeometry width="105" height="40" as="geometry">
            <mxRectangle width="105" height="40" as="alternateBounds" />
          </mxGeometry>
        </mxCell>
        <mxCell id="nSofzEZUP66_NC4QI2B9-29" value="delete" style="shape=partialRectangle;html=1;whiteSpace=wrap;connectable=0;strokeColor=inherit;overflow=hidden;fillColor=none;top=0;left=0;bottom=0;right=0;pointerEvents=1;fontSize=16;" vertex="1" parent="nSofzEZUP66_NC4QI2B9-27">
          <mxGeometry x="105" width="155" height="40" as="geometry">
            <mxRectangle width="155" height="40" as="alternateBounds" />
          </mxGeometry>
        </mxCell>
        <mxCell id="nSofzEZUP66_NC4QI2B9-30" value="/pk" style="shape=partialRectangle;html=1;whiteSpace=wrap;connectable=0;strokeColor=inherit;overflow=hidden;fillColor=none;top=0;left=0;bottom=0;right=0;pointerEvents=1;fontSize=16;" vertex="1" parent="nSofzEZUP66_NC4QI2B9-27">
          <mxGeometry x="260" width="155" height="40" as="geometry">
            <mxRectangle width="155" height="40" as="alternateBounds" />
          </mxGeometry>
        </mxCell>
        <mxCell id="nSofzEZUP66_NC4QI2B9-31" value="deletes the account" style="shape=partialRectangle;html=1;whiteSpace=wrap;connectable=0;strokeColor=inherit;overflow=hidden;fillColor=none;top=0;left=0;bottom=0;right=0;pointerEvents=1;fontSize=16;" vertex="1" parent="nSofzEZUP66_NC4QI2B9-27">
          <mxGeometry x="415" width="425" height="40" as="geometry">
            <mxRectangle width="425" height="40" as="alternateBounds" />
          </mxGeometry>
        </mxCell>
        <mxCell id="nSofzEZUP66_NC4QI2B9-32" value="transactions" style="shape=table;startSize=30;container=1;collapsible=0;childLayout=tableLayout;strokeColor=default;fontSize=16;" vertex="1" parent="1">
          <mxGeometry x="41" y="451" width="839.5" height="270" as="geometry" />
        </mxCell>
        <mxCell id="nSofzEZUP66_NC4QI2B9-33" value="" style="shape=tableRow;horizontal=0;startSize=0;swimlaneHead=0;swimlaneBody=0;strokeColor=inherit;top=0;left=0;bottom=0;right=0;collapsible=0;dropTarget=0;fillColor=none;points=[[0,0.5],[1,0.5]];portConstraint=eastwest;fontSize=16;" vertex="1" parent="nSofzEZUP66_NC4QI2B9-32">
          <mxGeometry y="30" width="839.5" height="40" as="geometry" />
        </mxCell>
        <mxCell id="nSofzEZUP66_NC4QI2B9-34" value="method" style="shape=partialRectangle;html=1;whiteSpace=wrap;connectable=0;strokeColor=inherit;overflow=hidden;fillColor=none;top=0;left=0;bottom=0;right=0;pointerEvents=1;fontSize=16;" vertex="1" parent="nSofzEZUP66_NC4QI2B9-33">
          <mxGeometry width="105" height="40" as="geometry">
            <mxRectangle width="105" height="40" as="alternateBounds" />
          </mxGeometry>
        </mxCell>
        <mxCell id="nSofzEZUP66_NC4QI2B9-35" value="action" style="shape=partialRectangle;html=1;whiteSpace=wrap;connectable=0;strokeColor=inherit;overflow=hidden;fillColor=none;top=0;left=0;bottom=0;right=0;pointerEvents=1;fontSize=16;" vertex="1" parent="nSofzEZUP66_NC4QI2B9-33">
          <mxGeometry x="105" width="155" height="40" as="geometry">
            <mxRectangle width="155" height="40" as="alternateBounds" />
          </mxGeometry>
        </mxCell>
        <mxCell id="nSofzEZUP66_NC4QI2B9-36" value="URL" style="shape=partialRectangle;html=1;whiteSpace=wrap;connectable=0;strokeColor=inherit;overflow=hidden;fillColor=none;top=0;left=0;bottom=0;right=0;pointerEvents=1;fontSize=16;" vertex="1" parent="nSofzEZUP66_NC4QI2B9-33">
          <mxGeometry x="260" width="155" height="40" as="geometry">
            <mxRectangle width="155" height="40" as="alternateBounds" />
          </mxGeometry>
        </mxCell>
        <mxCell id="nSofzEZUP66_NC4QI2B9-37" value="description" style="shape=partialRectangle;html=1;whiteSpace=wrap;connectable=0;strokeColor=inherit;overflow=hidden;fillColor=none;top=0;left=0;bottom=0;right=0;pointerEvents=1;fontSize=16;" vertex="1" parent="nSofzEZUP66_NC4QI2B9-33">
          <mxGeometry x="415" width="425" height="40" as="geometry">
            <mxRectangle width="425" height="40" as="alternateBounds" />
          </mxGeometry>
        </mxCell>
        <mxCell id="nSofzEZUP66_NC4QI2B9-38" value="" style="shape=tableRow;horizontal=0;startSize=0;swimlaneHead=0;swimlaneBody=0;strokeColor=inherit;top=0;left=0;bottom=0;right=0;collapsible=0;dropTarget=0;fillColor=none;points=[[0,0.5],[1,0.5]];portConstraint=eastwest;fontSize=16;" vertex="1" parent="nSofzEZUP66_NC4QI2B9-32">
          <mxGeometry y="70" width="839.5" height="40" as="geometry" />
        </mxCell>
        <mxCell id="nSofzEZUP66_NC4QI2B9-39" value="GET" style="shape=partialRectangle;html=1;whiteSpace=wrap;connectable=0;strokeColor=inherit;overflow=hidden;fillColor=none;top=0;left=0;bottom=0;right=0;pointerEvents=1;fontSize=16;" vertex="1" parent="nSofzEZUP66_NC4QI2B9-38">
          <mxGeometry width="105" height="40" as="geometry">
            <mxRectangle width="105" height="40" as="alternateBounds" />
          </mxGeometry>
        </mxCell>
        <mxCell id="nSofzEZUP66_NC4QI2B9-40" value="list" style="shape=partialRectangle;html=1;whiteSpace=wrap;connectable=0;strokeColor=inherit;overflow=hidden;fillColor=none;top=0;left=0;bottom=0;right=0;pointerEvents=1;fontSize=16;" vertex="1" parent="nSofzEZUP66_NC4QI2B9-38">
          <mxGeometry x="105" width="155" height="40" as="geometry">
            <mxRectangle width="155" height="40" as="alternateBounds" />
          </mxGeometry>
        </mxCell>
        <mxCell id="nSofzEZUP66_NC4QI2B9-41" value="transaction/" style="shape=partialRectangle;html=1;whiteSpace=wrap;connectable=0;strokeColor=inherit;overflow=hidden;fillColor=none;top=0;left=0;bottom=0;right=0;pointerEvents=1;fontSize=16;" vertex="1" parent="nSofzEZUP66_NC4QI2B9-38">
          <mxGeometry x="260" width="155" height="40" as="geometry">
            <mxRectangle width="155" height="40" as="alternateBounds" />
          </mxGeometry>
        </mxCell>
        <mxCell id="nSofzEZUP66_NC4QI2B9-42" value="lists all the transactions of the user" style="shape=partialRectangle;html=1;whiteSpace=wrap;connectable=0;strokeColor=inherit;overflow=hidden;fillColor=none;top=0;left=0;bottom=0;right=0;pointerEvents=1;fontSize=16;" vertex="1" parent="nSofzEZUP66_NC4QI2B9-38">
          <mxGeometry x="415" width="425" height="40" as="geometry">
            <mxRectangle width="425" height="40" as="alternateBounds" />
          </mxGeometry>
        </mxCell>
        <mxCell id="nSofzEZUP66_NC4QI2B9-43" value="" style="shape=tableRow;horizontal=0;startSize=0;swimlaneHead=0;swimlaneBody=0;strokeColor=inherit;top=0;left=0;bottom=0;right=0;collapsible=0;dropTarget=0;fillColor=none;points=[[0,0.5],[1,0.5]];portConstraint=eastwest;fontSize=16;" vertex="1" parent="nSofzEZUP66_NC4QI2B9-32">
          <mxGeometry y="110" width="839.5" height="40" as="geometry" />
        </mxCell>
        <mxCell id="nSofzEZUP66_NC4QI2B9-44" value="POST" style="shape=partialRectangle;html=1;whiteSpace=wrap;connectable=0;strokeColor=inherit;overflow=hidden;fillColor=none;top=0;left=0;bottom=0;right=0;pointerEvents=1;fontSize=16;" vertex="1" parent="nSofzEZUP66_NC4QI2B9-43">
          <mxGeometry width="105" height="40" as="geometry">
            <mxRectangle width="105" height="40" as="alternateBounds" />
          </mxGeometry>
        </mxCell>
        <mxCell id="nSofzEZUP66_NC4QI2B9-45" value="create" style="shape=partialRectangle;html=1;whiteSpace=wrap;connectable=0;strokeColor=inherit;overflow=hidden;fillColor=none;top=0;left=0;bottom=0;right=0;pointerEvents=1;fontSize=16;" vertex="1" parent="nSofzEZUP66_NC4QI2B9-43">
          <mxGeometry x="105" width="155" height="40" as="geometry">
            <mxRectangle width="155" height="40" as="alternateBounds" />
          </mxGeometry>
        </mxCell>
        <mxCell id="nSofzEZUP66_NC4QI2B9-46" value="transaction/" style="shape=partialRectangle;html=1;whiteSpace=wrap;connectable=0;strokeColor=inherit;overflow=hidden;fillColor=none;top=0;left=0;bottom=0;right=0;pointerEvents=1;fontSize=16;" vertex="1" parent="nSofzEZUP66_NC4QI2B9-43">
          <mxGeometry x="260" width="155" height="40" as="geometry">
            <mxRectangle width="155" height="40" as="alternateBounds" />
          </mxGeometry>
        </mxCell>
        <mxCell id="nSofzEZUP66_NC4QI2B9-47" value="creates an transaction" style="shape=partialRectangle;html=1;whiteSpace=wrap;connectable=0;strokeColor=inherit;overflow=hidden;fillColor=none;top=0;left=0;bottom=0;right=0;pointerEvents=1;fontSize=16;" vertex="1" parent="nSofzEZUP66_NC4QI2B9-43">
          <mxGeometry x="415" width="425" height="40" as="geometry">
            <mxRectangle width="425" height="40" as="alternateBounds" />
          </mxGeometry>
        </mxCell>
        <mxCell id="nSofzEZUP66_NC4QI2B9-48" value="" style="shape=tableRow;horizontal=0;startSize=0;swimlaneHead=0;swimlaneBody=0;strokeColor=inherit;top=0;left=0;bottom=0;right=0;collapsible=0;dropTarget=0;fillColor=none;points=[[0,0.5],[1,0.5]];portConstraint=eastwest;fontSize=16;" vertex="1" parent="nSofzEZUP66_NC4QI2B9-32">
          <mxGeometry y="150" width="839.5" height="40" as="geometry" />
        </mxCell>
        <mxCell id="nSofzEZUP66_NC4QI2B9-49" value="GET" style="shape=partialRectangle;html=1;whiteSpace=wrap;connectable=0;strokeColor=inherit;overflow=hidden;fillColor=none;top=0;left=0;bottom=0;right=0;pointerEvents=1;fontSize=16;" vertex="1" parent="nSofzEZUP66_NC4QI2B9-48">
          <mxGeometry width="105" height="40" as="geometry">
            <mxRectangle width="105" height="40" as="alternateBounds" />
          </mxGeometry>
        </mxCell>
        <mxCell id="nSofzEZUP66_NC4QI2B9-50" value="retrieve" style="shape=partialRectangle;html=1;whiteSpace=wrap;connectable=0;strokeColor=inherit;overflow=hidden;fillColor=none;top=0;left=0;bottom=0;right=0;pointerEvents=1;fontSize=16;" vertex="1" parent="nSofzEZUP66_NC4QI2B9-48">
          <mxGeometry x="105" width="155" height="40" as="geometry">
            <mxRectangle width="155" height="40" as="alternateBounds" />
          </mxGeometry>
        </mxCell>
        <mxCell id="nSofzEZUP66_NC4QI2B9-51" value="transaction/pk" style="shape=partialRectangle;html=1;whiteSpace=wrap;connectable=0;strokeColor=inherit;overflow=hidden;fillColor=none;top=0;left=0;bottom=0;right=0;pointerEvents=1;fontSize=16;" vertex="1" parent="nSofzEZUP66_NC4QI2B9-48">
          <mxGeometry x="260" width="155" height="40" as="geometry">
            <mxRectangle width="155" height="40" as="alternateBounds" />
          </mxGeometry>
        </mxCell>
        <mxCell id="nSofzEZUP66_NC4QI2B9-52" value="gets the specific transaction" style="shape=partialRectangle;html=1;whiteSpace=wrap;connectable=0;strokeColor=inherit;overflow=hidden;fillColor=none;top=0;left=0;bottom=0;right=0;pointerEvents=1;fontSize=16;" vertex="1" parent="nSofzEZUP66_NC4QI2B9-48">
          <mxGeometry x="415" width="425" height="40" as="geometry">
            <mxRectangle width="425" height="40" as="alternateBounds" />
          </mxGeometry>
        </mxCell>
        <mxCell id="nSofzEZUP66_NC4QI2B9-53" value="" style="shape=tableRow;horizontal=0;startSize=0;swimlaneHead=0;swimlaneBody=0;strokeColor=inherit;top=0;left=0;bottom=0;right=0;collapsible=0;dropTarget=0;fillColor=none;points=[[0,0.5],[1,0.5]];portConstraint=eastwest;fontSize=16;" vertex="1" parent="nSofzEZUP66_NC4QI2B9-32">
          <mxGeometry y="190" width="839.5" height="40" as="geometry" />
        </mxCell>
        <mxCell id="nSofzEZUP66_NC4QI2B9-54" value="PUT/PATCH" style="shape=partialRectangle;html=1;whiteSpace=wrap;connectable=0;strokeColor=inherit;overflow=hidden;fillColor=none;top=0;left=0;bottom=0;right=0;pointerEvents=1;fontSize=16;" vertex="1" parent="nSofzEZUP66_NC4QI2B9-53">
          <mxGeometry width="105" height="40" as="geometry">
            <mxRectangle width="105" height="40" as="alternateBounds" />
          </mxGeometry>
        </mxCell>
        <mxCell id="nSofzEZUP66_NC4QI2B9-55" value="update" style="shape=partialRectangle;html=1;whiteSpace=wrap;connectable=0;strokeColor=inherit;overflow=hidden;fillColor=none;top=0;left=0;bottom=0;right=0;pointerEvents=1;fontSize=16;" vertex="1" parent="nSofzEZUP66_NC4QI2B9-53">
          <mxGeometry x="105" width="155" height="40" as="geometry">
            <mxRectangle width="155" height="40" as="alternateBounds" />
          </mxGeometry>
        </mxCell>
        <mxCell id="nSofzEZUP66_NC4QI2B9-56" value="transaction/pk" style="shape=partialRectangle;html=1;whiteSpace=wrap;connectable=0;strokeColor=inherit;overflow=hidden;fillColor=none;top=0;left=0;bottom=0;right=0;pointerEvents=1;fontSize=16;" vertex="1" parent="nSofzEZUP66_NC4QI2B9-53">
          <mxGeometry x="260" width="155" height="40" as="geometry">
            <mxRectangle width="155" height="40" as="alternateBounds" />
          </mxGeometry>
        </mxCell>
        <mxCell id="nSofzEZUP66_NC4QI2B9-57" value="updates the transaction" style="shape=partialRectangle;html=1;whiteSpace=wrap;connectable=0;strokeColor=inherit;overflow=hidden;fillColor=none;top=0;left=0;bottom=0;right=0;pointerEvents=1;fontSize=16;" vertex="1" parent="nSofzEZUP66_NC4QI2B9-53">
          <mxGeometry x="415" width="425" height="40" as="geometry">
            <mxRectangle width="425" height="40" as="alternateBounds" />
          </mxGeometry>
        </mxCell>
        <mxCell id="nSofzEZUP66_NC4QI2B9-58" value="" style="shape=tableRow;horizontal=0;startSize=0;swimlaneHead=0;swimlaneBody=0;strokeColor=inherit;top=0;left=0;bottom=0;right=0;collapsible=0;dropTarget=0;fillColor=none;points=[[0,0.5],[1,0.5]];portConstraint=eastwest;fontSize=16;" vertex="1" parent="nSofzEZUP66_NC4QI2B9-32">
          <mxGeometry y="230" width="839.5" height="40" as="geometry" />
        </mxCell>
        <mxCell id="nSofzEZUP66_NC4QI2B9-59" value="DELETE" style="shape=partialRectangle;html=1;whiteSpace=wrap;connectable=0;strokeColor=inherit;overflow=hidden;fillColor=none;top=0;left=0;bottom=0;right=0;pointerEvents=1;fontSize=16;" vertex="1" parent="nSofzEZUP66_NC4QI2B9-58">
          <mxGeometry width="105" height="40" as="geometry">
            <mxRectangle width="105" height="40" as="alternateBounds" />
          </mxGeometry>
        </mxCell>
        <mxCell id="nSofzEZUP66_NC4QI2B9-60" value="delete" style="shape=partialRectangle;html=1;whiteSpace=wrap;connectable=0;strokeColor=inherit;overflow=hidden;fillColor=none;top=0;left=0;bottom=0;right=0;pointerEvents=1;fontSize=16;" vertex="1" parent="nSofzEZUP66_NC4QI2B9-58">
          <mxGeometry x="105" width="155" height="40" as="geometry">
            <mxRectangle width="155" height="40" as="alternateBounds" />
          </mxGeometry>
        </mxCell>
        <mxCell id="nSofzEZUP66_NC4QI2B9-61" value="transaction/pk" style="shape=partialRectangle;html=1;whiteSpace=wrap;connectable=0;strokeColor=inherit;overflow=hidden;fillColor=none;top=0;left=0;bottom=0;right=0;pointerEvents=1;fontSize=16;" vertex="1" parent="nSofzEZUP66_NC4QI2B9-58">
          <mxGeometry x="260" width="155" height="40" as="geometry">
            <mxRectangle width="155" height="40" as="alternateBounds" />
          </mxGeometry>
        </mxCell>
        <mxCell id="nSofzEZUP66_NC4QI2B9-62" value="deletes the transaction" style="shape=partialRectangle;html=1;whiteSpace=wrap;connectable=0;strokeColor=inherit;overflow=hidden;fillColor=none;top=0;left=0;bottom=0;right=0;pointerEvents=1;fontSize=16;" vertex="1" parent="nSofzEZUP66_NC4QI2B9-58">
          <mxGeometry x="415" width="425" height="40" as="geometry">
            <mxRectangle width="425" height="40" as="alternateBounds" />
          </mxGeometry>
        </mxCell>
        <mxCell id="nSofzEZUP66_NC4QI2B9-63" value="categories" style="shape=table;startSize=30;container=1;collapsible=0;childLayout=tableLayout;strokeColor=default;fontSize=16;" vertex="1" parent="1">
          <mxGeometry x="41" y="751" width="839.5" height="230" as="geometry" />
        </mxCell>
        <mxCell id="nSofzEZUP66_NC4QI2B9-64" value="" style="shape=tableRow;horizontal=0;startSize=0;swimlaneHead=0;swimlaneBody=0;strokeColor=inherit;top=0;left=0;bottom=0;right=0;collapsible=0;dropTarget=0;fillColor=none;points=[[0,0.5],[1,0.5]];portConstraint=eastwest;fontSize=16;" vertex="1" parent="nSofzEZUP66_NC4QI2B9-63">
          <mxGeometry y="30" width="839.5" height="40" as="geometry" />
        </mxCell>
        <mxCell id="nSofzEZUP66_NC4QI2B9-65" value="method" style="shape=partialRectangle;html=1;whiteSpace=wrap;connectable=0;strokeColor=inherit;overflow=hidden;fillColor=none;top=0;left=0;bottom=0;right=0;pointerEvents=1;fontSize=16;" vertex="1" parent="nSofzEZUP66_NC4QI2B9-64">
          <mxGeometry width="105" height="40" as="geometry">
            <mxRectangle width="105" height="40" as="alternateBounds" />
          </mxGeometry>
        </mxCell>
        <mxCell id="nSofzEZUP66_NC4QI2B9-66" value="action" style="shape=partialRectangle;html=1;whiteSpace=wrap;connectable=0;strokeColor=inherit;overflow=hidden;fillColor=none;top=0;left=0;bottom=0;right=0;pointerEvents=1;fontSize=16;" vertex="1" parent="nSofzEZUP66_NC4QI2B9-64">
          <mxGeometry x="105" width="155" height="40" as="geometry">
            <mxRectangle width="155" height="40" as="alternateBounds" />
          </mxGeometry>
        </mxCell>
        <mxCell id="nSofzEZUP66_NC4QI2B9-67" value="URL" style="shape=partialRectangle;html=1;whiteSpace=wrap;connectable=0;strokeColor=inherit;overflow=hidden;fillColor=none;top=0;left=0;bottom=0;right=0;pointerEvents=1;fontSize=16;" vertex="1" parent="nSofzEZUP66_NC4QI2B9-64">
          <mxGeometry x="260" width="155" height="40" as="geometry">
            <mxRectangle width="155" height="40" as="alternateBounds" />
          </mxGeometry>
        </mxCell>
        <mxCell id="nSofzEZUP66_NC4QI2B9-68" value="description" style="shape=partialRectangle;html=1;whiteSpace=wrap;connectable=0;strokeColor=inherit;overflow=hidden;fillColor=none;top=0;left=0;bottom=0;right=0;pointerEvents=1;fontSize=16;" vertex="1" parent="nSofzEZUP66_NC4QI2B9-64">
          <mxGeometry x="415" width="425" height="40" as="geometry">
            <mxRectangle width="425" height="40" as="alternateBounds" />
          </mxGeometry>
        </mxCell>
        <mxCell id="nSofzEZUP66_NC4QI2B9-69" value="" style="shape=tableRow;horizontal=0;startSize=0;swimlaneHead=0;swimlaneBody=0;strokeColor=inherit;top=0;left=0;bottom=0;right=0;collapsible=0;dropTarget=0;fillColor=none;points=[[0,0.5],[1,0.5]];portConstraint=eastwest;fontSize=16;" vertex="1" parent="nSofzEZUP66_NC4QI2B9-63">
          <mxGeometry y="70" width="839.5" height="40" as="geometry" />
        </mxCell>
        <mxCell id="nSofzEZUP66_NC4QI2B9-70" value="GET" style="shape=partialRectangle;html=1;whiteSpace=wrap;connectable=0;strokeColor=inherit;overflow=hidden;fillColor=none;top=0;left=0;bottom=0;right=0;pointerEvents=1;fontSize=16;" vertex="1" parent="nSofzEZUP66_NC4QI2B9-69">
          <mxGeometry width="105" height="40" as="geometry">
            <mxRectangle width="105" height="40" as="alternateBounds" />
          </mxGeometry>
        </mxCell>
        <mxCell id="nSofzEZUP66_NC4QI2B9-71" value="list" style="shape=partialRectangle;html=1;whiteSpace=wrap;connectable=0;strokeColor=inherit;overflow=hidden;fillColor=none;top=0;left=0;bottom=0;right=0;pointerEvents=1;fontSize=16;" vertex="1" parent="nSofzEZUP66_NC4QI2B9-69">
          <mxGeometry x="105" width="155" height="40" as="geometry">
            <mxRectangle width="155" height="40" as="alternateBounds" />
          </mxGeometry>
        </mxCell>
        <mxCell id="nSofzEZUP66_NC4QI2B9-72" value="category/" style="shape=partialRectangle;html=1;whiteSpace=wrap;connectable=0;strokeColor=inherit;overflow=hidden;fillColor=none;top=0;left=0;bottom=0;right=0;pointerEvents=1;fontSize=16;" vertex="1" parent="nSofzEZUP66_NC4QI2B9-69">
          <mxGeometry x="260" width="155" height="40" as="geometry">
            <mxRectangle width="155" height="40" as="alternateBounds" />
          </mxGeometry>
        </mxCell>
        <mxCell id="nSofzEZUP66_NC4QI2B9-73" value="lists all the categories&amp;nbsp;of the user" style="shape=partialRectangle;html=1;whiteSpace=wrap;connectable=0;strokeColor=inherit;overflow=hidden;fillColor=none;top=0;left=0;bottom=0;right=0;pointerEvents=1;fontSize=16;" vertex="1" parent="nSofzEZUP66_NC4QI2B9-69">
          <mxGeometry x="415" width="425" height="40" as="geometry">
            <mxRectangle width="425" height="40" as="alternateBounds" />
          </mxGeometry>
        </mxCell>
        <mxCell id="nSofzEZUP66_NC4QI2B9-74" value="" style="shape=tableRow;horizontal=0;startSize=0;swimlaneHead=0;swimlaneBody=0;strokeColor=inherit;top=0;left=0;bottom=0;right=0;collapsible=0;dropTarget=0;fillColor=none;points=[[0,0.5],[1,0.5]];portConstraint=eastwest;fontSize=16;" vertex="1" parent="nSofzEZUP66_NC4QI2B9-63">
          <mxGeometry y="110" width="839.5" height="40" as="geometry" />
        </mxCell>
        <mxCell id="nSofzEZUP66_NC4QI2B9-75" value="POST" style="shape=partialRectangle;html=1;whiteSpace=wrap;connectable=0;strokeColor=inherit;overflow=hidden;fillColor=none;top=0;left=0;bottom=0;right=0;pointerEvents=1;fontSize=16;" vertex="1" parent="nSofzEZUP66_NC4QI2B9-74">
          <mxGeometry width="105" height="40" as="geometry">
            <mxRectangle width="105" height="40" as="alternateBounds" />
          </mxGeometry>
        </mxCell>
        <mxCell id="nSofzEZUP66_NC4QI2B9-76" value="create" style="shape=partialRectangle;html=1;whiteSpace=wrap;connectable=0;strokeColor=inherit;overflow=hidden;fillColor=none;top=0;left=0;bottom=0;right=0;pointerEvents=1;fontSize=16;" vertex="1" parent="nSofzEZUP66_NC4QI2B9-74">
          <mxGeometry x="105" width="155" height="40" as="geometry">
            <mxRectangle width="155" height="40" as="alternateBounds" />
          </mxGeometry>
        </mxCell>
        <mxCell id="nSofzEZUP66_NC4QI2B9-77" value="category/" style="shape=partialRectangle;html=1;whiteSpace=wrap;connectable=0;strokeColor=inherit;overflow=hidden;fillColor=none;top=0;left=0;bottom=0;right=0;pointerEvents=1;fontSize=16;" vertex="1" parent="nSofzEZUP66_NC4QI2B9-74">
          <mxGeometry x="260" width="155" height="40" as="geometry">
            <mxRectangle width="155" height="40" as="alternateBounds" />
          </mxGeometry>
        </mxCell>
        <mxCell id="nSofzEZUP66_NC4QI2B9-78" value="creates an category" style="shape=partialRectangle;html=1;whiteSpace=wrap;connectable=0;strokeColor=inherit;overflow=hidden;fillColor=none;top=0;left=0;bottom=0;right=0;pointerEvents=1;fontSize=16;" vertex="1" parent="nSofzEZUP66_NC4QI2B9-74">
          <mxGeometry x="415" width="425" height="40" as="geometry">
            <mxRectangle width="425" height="40" as="alternateBounds" />
          </mxGeometry>
        </mxCell>
        <mxCell id="nSofzEZUP66_NC4QI2B9-79" value="" style="shape=tableRow;horizontal=0;startSize=0;swimlaneHead=0;swimlaneBody=0;strokeColor=inherit;top=0;left=0;bottom=0;right=0;collapsible=0;dropTarget=0;fillColor=none;points=[[0,0.5],[1,0.5]];portConstraint=eastwest;fontSize=16;" vertex="1" parent="nSofzEZUP66_NC4QI2B9-63">
          <mxGeometry y="150" width="839.5" height="40" as="geometry" />
        </mxCell>
        <mxCell id="nSofzEZUP66_NC4QI2B9-80" value="GET" style="shape=partialRectangle;html=1;whiteSpace=wrap;connectable=0;strokeColor=inherit;overflow=hidden;fillColor=none;top=0;left=0;bottom=0;right=0;pointerEvents=1;fontSize=16;" vertex="1" parent="nSofzEZUP66_NC4QI2B9-79">
          <mxGeometry width="105" height="40" as="geometry">
            <mxRectangle width="105" height="40" as="alternateBounds" />
          </mxGeometry>
        </mxCell>
        <mxCell id="nSofzEZUP66_NC4QI2B9-81" value="retrieve" style="shape=partialRectangle;html=1;whiteSpace=wrap;connectable=0;strokeColor=inherit;overflow=hidden;fillColor=none;top=0;left=0;bottom=0;right=0;pointerEvents=1;fontSize=16;" vertex="1" parent="nSofzEZUP66_NC4QI2B9-79">
          <mxGeometry x="105" width="155" height="40" as="geometry">
            <mxRectangle width="155" height="40" as="alternateBounds" />
          </mxGeometry>
        </mxCell>
        <mxCell id="nSofzEZUP66_NC4QI2B9-82" value="category/pk" style="shape=partialRectangle;html=1;whiteSpace=wrap;connectable=0;strokeColor=inherit;overflow=hidden;fillColor=none;top=0;left=0;bottom=0;right=0;pointerEvents=1;fontSize=16;" vertex="1" parent="nSofzEZUP66_NC4QI2B9-79">
          <mxGeometry x="260" width="155" height="40" as="geometry">
            <mxRectangle width="155" height="40" as="alternateBounds" />
          </mxGeometry>
        </mxCell>
        <mxCell id="nSofzEZUP66_NC4QI2B9-83" value="gets the specific category" style="shape=partialRectangle;html=1;whiteSpace=wrap;connectable=0;strokeColor=inherit;overflow=hidden;fillColor=none;top=0;left=0;bottom=0;right=0;pointerEvents=1;fontSize=16;" vertex="1" parent="nSofzEZUP66_NC4QI2B9-79">
          <mxGeometry x="415" width="425" height="40" as="geometry">
            <mxRectangle width="425" height="40" as="alternateBounds" />
          </mxGeometry>
        </mxCell>
        <mxCell id="nSofzEZUP66_NC4QI2B9-89" value="" style="shape=tableRow;horizontal=0;startSize=0;swimlaneHead=0;swimlaneBody=0;strokeColor=inherit;top=0;left=0;bottom=0;right=0;collapsible=0;dropTarget=0;fillColor=none;points=[[0,0.5],[1,0.5]];portConstraint=eastwest;fontSize=16;" vertex="1" parent="nSofzEZUP66_NC4QI2B9-63">
          <mxGeometry y="190" width="839.5" height="40" as="geometry" />
        </mxCell>
        <mxCell id="nSofzEZUP66_NC4QI2B9-90" value="DELETE" style="shape=partialRectangle;html=1;whiteSpace=wrap;connectable=0;strokeColor=inherit;overflow=hidden;fillColor=none;top=0;left=0;bottom=0;right=0;pointerEvents=1;fontSize=16;" vertex="1" parent="nSofzEZUP66_NC4QI2B9-89">
          <mxGeometry width="105" height="40" as="geometry">
            <mxRectangle width="105" height="40" as="alternateBounds" />
          </mxGeometry>
        </mxCell>
        <mxCell id="nSofzEZUP66_NC4QI2B9-91" value="delete" style="shape=partialRectangle;html=1;whiteSpace=wrap;connectable=0;strokeColor=inherit;overflow=hidden;fillColor=none;top=0;left=0;bottom=0;right=0;pointerEvents=1;fontSize=16;" vertex="1" parent="nSofzEZUP66_NC4QI2B9-89">
          <mxGeometry x="105" width="155" height="40" as="geometry">
            <mxRectangle width="155" height="40" as="alternateBounds" />
          </mxGeometry>
        </mxCell>
        <mxCell id="nSofzEZUP66_NC4QI2B9-92" value="category/pk" style="shape=partialRectangle;html=1;whiteSpace=wrap;connectable=0;strokeColor=inherit;overflow=hidden;fillColor=none;top=0;left=0;bottom=0;right=0;pointerEvents=1;fontSize=16;" vertex="1" parent="nSofzEZUP66_NC4QI2B9-89">
          <mxGeometry x="260" width="155" height="40" as="geometry">
            <mxRectangle width="155" height="40" as="alternateBounds" />
          </mxGeometry>
        </mxCell>
        <mxCell id="nSofzEZUP66_NC4QI2B9-93" value="deletes the category" style="shape=partialRectangle;html=1;whiteSpace=wrap;connectable=0;strokeColor=inherit;overflow=hidden;fillColor=none;top=0;left=0;bottom=0;right=0;pointerEvents=1;fontSize=16;" vertex="1" parent="nSofzEZUP66_NC4QI2B9-89">
          <mxGeometry x="415" width="425" height="40" as="geometry">
            <mxRectangle width="425" height="40" as="alternateBounds" />
          </mxGeometry>
        </mxCell>
        <mxCell id="hfT1Z2PYoHtS55gg74yx-27" value="assets and liabilities" style="shape=table;startSize=30;container=1;collapsible=0;childLayout=tableLayout;strokeColor=default;fontSize=16;" vertex="1" parent="1">
          <mxGeometry x="42" y="1011" width="839.5" height="270" as="geometry" />
        </mxCell>
        <mxCell id="hfT1Z2PYoHtS55gg74yx-28" value="" style="shape=tableRow;horizontal=0;startSize=0;swimlaneHead=0;swimlaneBody=0;strokeColor=inherit;top=0;left=0;bottom=0;right=0;collapsible=0;dropTarget=0;fillColor=none;points=[[0,0.5],[1,0.5]];portConstraint=eastwest;fontSize=16;" vertex="1" parent="hfT1Z2PYoHtS55gg74yx-27">
          <mxGeometry y="30" width="839.5" height="40" as="geometry" />
        </mxCell>
        <mxCell id="hfT1Z2PYoHtS55gg74yx-29" value="method" style="shape=partialRectangle;html=1;whiteSpace=wrap;connectable=0;strokeColor=inherit;overflow=hidden;fillColor=none;top=0;left=0;bottom=0;right=0;pointerEvents=1;fontSize=16;" vertex="1" parent="hfT1Z2PYoHtS55gg74yx-28">
          <mxGeometry width="105" height="40" as="geometry">
            <mxRectangle width="105" height="40" as="alternateBounds" />
          </mxGeometry>
        </mxCell>
        <mxCell id="hfT1Z2PYoHtS55gg74yx-30" value="action" style="shape=partialRectangle;html=1;whiteSpace=wrap;connectable=0;strokeColor=inherit;overflow=hidden;fillColor=none;top=0;left=0;bottom=0;right=0;pointerEvents=1;fontSize=16;" vertex="1" parent="hfT1Z2PYoHtS55gg74yx-28">
          <mxGeometry x="105" width="155" height="40" as="geometry">
            <mxRectangle width="155" height="40" as="alternateBounds" />
          </mxGeometry>
        </mxCell>
        <mxCell id="hfT1Z2PYoHtS55gg74yx-31" value="URL" style="shape=partialRectangle;html=1;whiteSpace=wrap;connectable=0;strokeColor=inherit;overflow=hidden;fillColor=none;top=0;left=0;bottom=0;right=0;pointerEvents=1;fontSize=16;" vertex="1" parent="hfT1Z2PYoHtS55gg74yx-28">
          <mxGeometry x="260" width="155" height="40" as="geometry">
            <mxRectangle width="155" height="40" as="alternateBounds" />
          </mxGeometry>
        </mxCell>
        <mxCell id="hfT1Z2PYoHtS55gg74yx-32" value="description" style="shape=partialRectangle;html=1;whiteSpace=wrap;connectable=0;strokeColor=inherit;overflow=hidden;fillColor=none;top=0;left=0;bottom=0;right=0;pointerEvents=1;fontSize=16;" vertex="1" parent="hfT1Z2PYoHtS55gg74yx-28">
          <mxGeometry x="415" width="425" height="40" as="geometry">
            <mxRectangle width="425" height="40" as="alternateBounds" />
          </mxGeometry>
        </mxCell>
        <mxCell id="hfT1Z2PYoHtS55gg74yx-33" value="" style="shape=tableRow;horizontal=0;startSize=0;swimlaneHead=0;swimlaneBody=0;strokeColor=inherit;top=0;left=0;bottom=0;right=0;collapsible=0;dropTarget=0;fillColor=none;points=[[0,0.5],[1,0.5]];portConstraint=eastwest;fontSize=16;" vertex="1" parent="hfT1Z2PYoHtS55gg74yx-27">
          <mxGeometry y="70" width="839.5" height="40" as="geometry" />
        </mxCell>
        <mxCell id="hfT1Z2PYoHtS55gg74yx-34" value="GET" style="shape=partialRectangle;html=1;whiteSpace=wrap;connectable=0;strokeColor=inherit;overflow=hidden;fillColor=none;top=0;left=0;bottom=0;right=0;pointerEvents=1;fontSize=16;" vertex="1" parent="hfT1Z2PYoHtS55gg74yx-33">
          <mxGeometry width="105" height="40" as="geometry">
            <mxRectangle width="105" height="40" as="alternateBounds" />
          </mxGeometry>
        </mxCell>
        <mxCell id="hfT1Z2PYoHtS55gg74yx-35" value="list" style="shape=partialRectangle;html=1;whiteSpace=wrap;connectable=0;strokeColor=inherit;overflow=hidden;fillColor=none;top=0;left=0;bottom=0;right=0;pointerEvents=1;fontSize=16;" vertex="1" parent="hfT1Z2PYoHtS55gg74yx-33">
          <mxGeometry x="105" width="155" height="40" as="geometry">
            <mxRectangle width="155" height="40" as="alternateBounds" />
          </mxGeometry>
        </mxCell>
        <mxCell id="hfT1Z2PYoHtS55gg74yx-36" value="assets_liabilities/" style="shape=partialRectangle;html=1;whiteSpace=wrap;connectable=0;strokeColor=inherit;overflow=hidden;fillColor=none;top=0;left=0;bottom=0;right=0;pointerEvents=1;fontSize=16;" vertex="1" parent="hfT1Z2PYoHtS55gg74yx-33">
          <mxGeometry x="260" width="155" height="40" as="geometry">
            <mxRectangle width="155" height="40" as="alternateBounds" />
          </mxGeometry>
        </mxCell>
        <mxCell id="hfT1Z2PYoHtS55gg74yx-37" value="lists all the&amp;nbsp;assets and liabilities&amp;nbsp;of the user" style="shape=partialRectangle;html=1;whiteSpace=wrap;connectable=0;strokeColor=inherit;overflow=hidden;fillColor=none;top=0;left=0;bottom=0;right=0;pointerEvents=1;fontSize=16;" vertex="1" parent="hfT1Z2PYoHtS55gg74yx-33">
          <mxGeometry x="415" width="425" height="40" as="geometry">
            <mxRectangle width="425" height="40" as="alternateBounds" />
          </mxGeometry>
        </mxCell>
        <mxCell id="hfT1Z2PYoHtS55gg74yx-38" value="" style="shape=tableRow;horizontal=0;startSize=0;swimlaneHead=0;swimlaneBody=0;strokeColor=inherit;top=0;left=0;bottom=0;right=0;collapsible=0;dropTarget=0;fillColor=none;points=[[0,0.5],[1,0.5]];portConstraint=eastwest;fontSize=16;" vertex="1" parent="hfT1Z2PYoHtS55gg74yx-27">
          <mxGeometry y="110" width="839.5" height="40" as="geometry" />
        </mxCell>
        <mxCell id="hfT1Z2PYoHtS55gg74yx-39" value="POST" style="shape=partialRectangle;html=1;whiteSpace=wrap;connectable=0;strokeColor=inherit;overflow=hidden;fillColor=none;top=0;left=0;bottom=0;right=0;pointerEvents=1;fontSize=16;" vertex="1" parent="hfT1Z2PYoHtS55gg74yx-38">
          <mxGeometry width="105" height="40" as="geometry">
            <mxRectangle width="105" height="40" as="alternateBounds" />
          </mxGeometry>
        </mxCell>
        <mxCell id="hfT1Z2PYoHtS55gg74yx-40" value="create" style="shape=partialRectangle;html=1;whiteSpace=wrap;connectable=0;strokeColor=inherit;overflow=hidden;fillColor=none;top=0;left=0;bottom=0;right=0;pointerEvents=1;fontSize=16;" vertex="1" parent="hfT1Z2PYoHtS55gg74yx-38">
          <mxGeometry x="105" width="155" height="40" as="geometry">
            <mxRectangle width="155" height="40" as="alternateBounds" />
          </mxGeometry>
        </mxCell>
        <mxCell id="hfT1Z2PYoHtS55gg74yx-41" value="assets_liabilities/" style="shape=partialRectangle;html=1;whiteSpace=wrap;connectable=0;strokeColor=inherit;overflow=hidden;fillColor=none;top=0;left=0;bottom=0;right=0;pointerEvents=1;fontSize=16;" vertex="1" parent="hfT1Z2PYoHtS55gg74yx-38">
          <mxGeometry x="260" width="155" height="40" as="geometry">
            <mxRectangle width="155" height="40" as="alternateBounds" />
          </mxGeometry>
        </mxCell>
        <mxCell id="hfT1Z2PYoHtS55gg74yx-42" value="creates an&amp;nbsp;asset and liability" style="shape=partialRectangle;html=1;whiteSpace=wrap;connectable=0;strokeColor=inherit;overflow=hidden;fillColor=none;top=0;left=0;bottom=0;right=0;pointerEvents=1;fontSize=16;" vertex="1" parent="hfT1Z2PYoHtS55gg74yx-38">
          <mxGeometry x="415" width="425" height="40" as="geometry">
            <mxRectangle width="425" height="40" as="alternateBounds" />
          </mxGeometry>
        </mxCell>
        <mxCell id="hfT1Z2PYoHtS55gg74yx-43" value="" style="shape=tableRow;horizontal=0;startSize=0;swimlaneHead=0;swimlaneBody=0;strokeColor=inherit;top=0;left=0;bottom=0;right=0;collapsible=0;dropTarget=0;fillColor=none;points=[[0,0.5],[1,0.5]];portConstraint=eastwest;fontSize=16;" vertex="1" parent="hfT1Z2PYoHtS55gg74yx-27">
          <mxGeometry y="150" width="839.5" height="40" as="geometry" />
        </mxCell>
        <mxCell id="hfT1Z2PYoHtS55gg74yx-44" value="GET" style="shape=partialRectangle;html=1;whiteSpace=wrap;connectable=0;strokeColor=inherit;overflow=hidden;fillColor=none;top=0;left=0;bottom=0;right=0;pointerEvents=1;fontSize=16;" vertex="1" parent="hfT1Z2PYoHtS55gg74yx-43">
          <mxGeometry width="105" height="40" as="geometry">
            <mxRectangle width="105" height="40" as="alternateBounds" />
          </mxGeometry>
        </mxCell>
        <mxCell id="hfT1Z2PYoHtS55gg74yx-45" value="retrieve" style="shape=partialRectangle;html=1;whiteSpace=wrap;connectable=0;strokeColor=inherit;overflow=hidden;fillColor=none;top=0;left=0;bottom=0;right=0;pointerEvents=1;fontSize=16;" vertex="1" parent="hfT1Z2PYoHtS55gg74yx-43">
          <mxGeometry x="105" width="155" height="40" as="geometry">
            <mxRectangle width="155" height="40" as="alternateBounds" />
          </mxGeometry>
        </mxCell>
        <mxCell id="hfT1Z2PYoHtS55gg74yx-46" value="assets_liabilities/pk" style="shape=partialRectangle;html=1;whiteSpace=wrap;connectable=0;strokeColor=inherit;overflow=hidden;fillColor=none;top=0;left=0;bottom=0;right=0;pointerEvents=1;fontSize=16;" vertex="1" parent="hfT1Z2PYoHtS55gg74yx-43">
          <mxGeometry x="260" width="155" height="40" as="geometry">
            <mxRectangle width="155" height="40" as="alternateBounds" />
          </mxGeometry>
        </mxCell>
        <mxCell id="hfT1Z2PYoHtS55gg74yx-47" value="gets the specific&amp;nbsp;assets and liabilities" style="shape=partialRectangle;html=1;whiteSpace=wrap;connectable=0;strokeColor=inherit;overflow=hidden;fillColor=none;top=0;left=0;bottom=0;right=0;pointerEvents=1;fontSize=16;" vertex="1" parent="hfT1Z2PYoHtS55gg74yx-43">
          <mxGeometry x="415" width="425" height="40" as="geometry">
            <mxRectangle width="425" height="40" as="alternateBounds" />
          </mxGeometry>
        </mxCell>
        <mxCell id="hfT1Z2PYoHtS55gg74yx-48" value="" style="shape=tableRow;horizontal=0;startSize=0;swimlaneHead=0;swimlaneBody=0;strokeColor=inherit;top=0;left=0;bottom=0;right=0;collapsible=0;dropTarget=0;fillColor=none;points=[[0,0.5],[1,0.5]];portConstraint=eastwest;fontSize=16;" vertex="1" parent="hfT1Z2PYoHtS55gg74yx-27">
          <mxGeometry y="190" width="839.5" height="40" as="geometry" />
        </mxCell>
        <mxCell id="hfT1Z2PYoHtS55gg74yx-49" value="PUT/PATCH" style="shape=partialRectangle;html=1;whiteSpace=wrap;connectable=0;strokeColor=inherit;overflow=hidden;fillColor=none;top=0;left=0;bottom=0;right=0;pointerEvents=1;fontSize=16;" vertex="1" parent="hfT1Z2PYoHtS55gg74yx-48">
          <mxGeometry width="105" height="40" as="geometry">
            <mxRectangle width="105" height="40" as="alternateBounds" />
          </mxGeometry>
        </mxCell>
        <mxCell id="hfT1Z2PYoHtS55gg74yx-50" value="update" style="shape=partialRectangle;html=1;whiteSpace=wrap;connectable=0;strokeColor=inherit;overflow=hidden;fillColor=none;top=0;left=0;bottom=0;right=0;pointerEvents=1;fontSize=16;" vertex="1" parent="hfT1Z2PYoHtS55gg74yx-48">
          <mxGeometry x="105" width="155" height="40" as="geometry">
            <mxRectangle width="155" height="40" as="alternateBounds" />
          </mxGeometry>
        </mxCell>
        <mxCell id="hfT1Z2PYoHtS55gg74yx-51" value="assets_liabilities/pk" style="shape=partialRectangle;html=1;whiteSpace=wrap;connectable=0;strokeColor=inherit;overflow=hidden;fillColor=none;top=0;left=0;bottom=0;right=0;pointerEvents=1;fontSize=16;" vertex="1" parent="hfT1Z2PYoHtS55gg74yx-48">
          <mxGeometry x="260" width="155" height="40" as="geometry">
            <mxRectangle width="155" height="40" as="alternateBounds" />
          </mxGeometry>
        </mxCell>
        <mxCell id="hfT1Z2PYoHtS55gg74yx-52" value="updates the&amp;nbsp;assets and liabilities" style="shape=partialRectangle;html=1;whiteSpace=wrap;connectable=0;strokeColor=inherit;overflow=hidden;fillColor=none;top=0;left=0;bottom=0;right=0;pointerEvents=1;fontSize=16;" vertex="1" parent="hfT1Z2PYoHtS55gg74yx-48">
          <mxGeometry x="415" width="425" height="40" as="geometry">
            <mxRectangle width="425" height="40" as="alternateBounds" />
          </mxGeometry>
        </mxCell>
        <mxCell id="hfT1Z2PYoHtS55gg74yx-53" value="" style="shape=tableRow;horizontal=0;startSize=0;swimlaneHead=0;swimlaneBody=0;strokeColor=inherit;top=0;left=0;bottom=0;right=0;collapsible=0;dropTarget=0;fillColor=none;points=[[0,0.5],[1,0.5]];portConstraint=eastwest;fontSize=16;" vertex="1" parent="hfT1Z2PYoHtS55gg74yx-27">
          <mxGeometry y="230" width="839.5" height="40" as="geometry" />
        </mxCell>
        <mxCell id="hfT1Z2PYoHtS55gg74yx-54" value="DELETE" style="shape=partialRectangle;html=1;whiteSpace=wrap;connectable=0;strokeColor=inherit;overflow=hidden;fillColor=none;top=0;left=0;bottom=0;right=0;pointerEvents=1;fontSize=16;" vertex="1" parent="hfT1Z2PYoHtS55gg74yx-53">
          <mxGeometry width="105" height="40" as="geometry">
            <mxRectangle width="105" height="40" as="alternateBounds" />
          </mxGeometry>
        </mxCell>
        <mxCell id="hfT1Z2PYoHtS55gg74yx-55" value="delete" style="shape=partialRectangle;html=1;whiteSpace=wrap;connectable=0;strokeColor=inherit;overflow=hidden;fillColor=none;top=0;left=0;bottom=0;right=0;pointerEvents=1;fontSize=16;" vertex="1" parent="hfT1Z2PYoHtS55gg74yx-53">
          <mxGeometry x="105" width="155" height="40" as="geometry">
            <mxRectangle width="155" height="40" as="alternateBounds" />
          </mxGeometry>
        </mxCell>
        <mxCell id="hfT1Z2PYoHtS55gg74yx-56" value="assets_liabilities/pk" style="shape=partialRectangle;html=1;whiteSpace=wrap;connectable=0;strokeColor=inherit;overflow=hidden;fillColor=none;top=0;left=0;bottom=0;right=0;pointerEvents=1;fontSize=16;" vertex="1" parent="hfT1Z2PYoHtS55gg74yx-53">
          <mxGeometry x="260" width="155" height="40" as="geometry">
            <mxRectangle width="155" height="40" as="alternateBounds" />
          </mxGeometry>
        </mxCell>
        <mxCell id="hfT1Z2PYoHtS55gg74yx-57" value="deletes the&amp;nbsp;assets and liabilities" style="shape=partialRectangle;html=1;whiteSpace=wrap;connectable=0;strokeColor=inherit;overflow=hidden;fillColor=none;top=0;left=0;bottom=0;right=0;pointerEvents=1;fontSize=16;" vertex="1" parent="hfT1Z2PYoHtS55gg74yx-53">
          <mxGeometry x="415" width="425" height="40" as="geometry">
            <mxRectangle width="425" height="40" as="alternateBounds" />
          </mxGeometry>
        </mxCell>
      </root>
    </mxGraphModel>
  </diagram>
</mxfile>
